<?xml version="1.0" encoding="utf-8"?>
<!-- Generator: Adobe Illustrator 19.0.0, SVG Export Plug-In . SVG Version: 6.00 Build 0)  -->
<svg version="1.1" id="Layer_1" xmlns="http://www.w3.org/2000/svg" xmlns:xlink="http://www.w3.org/1999/xlink" x="0px" y="0px"
	 width="700px" height="400px" viewBox="-161 201 700 400" style="enable-background:new -161 201 700 400;" xml:space="preserve">
<g id="XMLID_11_">
	<g>
		<path style="fill:none;stroke:#FF6400;stroke-width:4;stroke-miterlimit:10;" d="M28.6,458.5C51.8,524.6,114.7,572,188.7,572
			c75.5,0,139.5-49.4,161.5-117.6"/>
		<g>
			<polygon style="fill:#FF6400;" points="18,476.6 21.7,478.1 29.3,459.9 46.9,468.7 48.7,465.2 27.2,454.4 			"/>
		</g>
	</g>
</g>
<g id="XMLID_10_">
	<g>
		<path style="fill:none;stroke:#FF6400;stroke-width:4;stroke-miterlimit:10;" d="M351.7,355.2c-20.4-70.7-85.7-122.5-163-122.5
			c-78.8,0-145.1,53.8-164.1,126.7"/>
		<g>
			<polygon style="fill:#FF6400;" points="363.3,337.7 359.7,336 351.1,353.8 334,343.9 332.1,347.4 352.9,359.4 			"/>
		</g>
	</g>
</g>
<rect id="XMLID_3_" x="134.9" y="213.6" style="fill:#FFFFFF;" width="106.1" height="55.3"/>
<rect id="XMLID_9_" x="101.7" y="513.6" style="fill:#FFFFFF;" width="172.5" height="87.4"/>
<g id="XMLID_1826_">
	<path id="XMLID_1827_" style="fill:#FF6400;" d="M154.3,247.6c0.2,0.6,0.4,1,0.7,1.2c0.5,0.5,1.3,0.6,2.4,0.4
		c0.6-0.1,1.2-0.4,1.6-0.7c0.4-0.4,0.6-0.8,0.5-1.4c-0.1-0.4-0.3-0.7-0.8-0.9c-0.3-0.1-0.8-0.2-1.6-0.2l-1.4-0.1
		c-0.9-0.1-1.6-0.2-2.1-0.4c-0.8-0.3-1.3-0.9-1.5-1.7c-0.2-1,0-1.8,0.6-2.5s1.5-1.2,2.7-1.4c1.6-0.3,2.7,0,3.6,0.8
		c0.5,0.5,0.8,1.1,0.9,1.7l-1.6,0.3c-0.1-0.4-0.3-0.7-0.6-1c-0.5-0.4-1.2-0.5-2.2-0.3c-0.7,0.1-1.1,0.3-1.4,0.6
		c-0.3,0.3-0.4,0.7-0.3,1.1c0.1,0.4,0.4,0.8,0.9,0.9c0.3,0.1,0.7,0.2,1.2,0.2l1.2,0.1c1.3,0.1,2.2,0.2,2.7,0.4
		c0.7,0.3,1.2,0.9,1.4,1.9c0.2,0.9-0.1,1.7-0.6,2.5c-0.6,0.8-1.6,1.3-3,1.5c-1.5,0.3-2.7,0.1-3.4-0.5c-0.8-0.6-1.2-1.4-1.5-2.4
		L154.3,247.6z"/>
	<path id="XMLID_1829_" style="fill:#FF6400;" d="M168.6,238.4l1.9-0.2c-0.2,0.7-0.5,2.2-1.1,4.7c-0.4,1.8-0.8,3.3-1.1,4.5
		c-0.7,2.7-1.2,4.4-1.5,5c-0.3,0.6-1,1-2,1.1c-0.2,0-0.4,0-0.6,0c-0.1,0-0.3,0-0.5,0l-0.2-1.6c0.3,0,0.5,0.1,0.7,0.1
		c0.1,0,0.3,0,0.4,0c0.3,0,0.5-0.1,0.7-0.2c0.1-0.1,0.2-0.3,0.3-0.4c0-0.1,0.1-0.3,0.2-0.8c0.1-0.5,0.2-0.9,0.3-1.1l-5-10.1l2-0.2
		l3.7,8L168.6,238.4z"/>
	<path id="XMLID_1831_" style="fill:#FF6400;" d="M173.8,245c0.1,0.6,0.3,1,0.5,1.3c0.5,0.5,1.3,0.8,2.4,0.7c0.7,0,1.2-0.2,1.7-0.5
		c0.5-0.3,0.7-0.8,0.7-1.3c0-0.4-0.2-0.8-0.7-1c-0.3-0.1-0.8-0.3-1.5-0.4l-1.4-0.3c-0.9-0.2-1.6-0.4-2-0.6c-0.8-0.4-1.2-1-1.3-1.9
		c-0.1-1,0.2-1.8,0.9-2.4c0.7-0.6,1.6-1,2.8-1.1c1.6-0.1,2.7,0.3,3.5,1.1c0.5,0.5,0.7,1.2,0.8,1.8l-1.6,0.1c-0.1-0.4-0.2-0.7-0.5-1
		c-0.4-0.4-1.2-0.6-2.2-0.5c-0.7,0-1.2,0.2-1.5,0.5c-0.3,0.3-0.5,0.6-0.5,1c0,0.4,0.3,0.8,0.7,1c0.3,0.1,0.7,0.3,1.2,0.3l1.2,0.2
		c1.3,0.2,2.2,0.5,2.6,0.7c0.7,0.4,1.1,1.1,1.1,2c0.1,0.9-0.2,1.7-0.9,2.4c-0.7,0.7-1.7,1.1-3.2,1.2c-1.6,0.1-2.7-0.2-3.4-0.8
		c-0.7-0.7-1.1-1.5-1.2-2.5L173.8,245z"/>
	<path id="XMLID_1833_" style="fill:#FF6400;" d="M182.8,234.6l1.8,0l0.1,2.9l1.6,0l0,1.4l-1.6,0l0.1,6.7c0,0.4,0.1,0.6,0.4,0.7
		c0.1,0.1,0.4,0.1,0.7,0.1c0.1,0,0.2,0,0.3,0c0.1,0,0.2,0,0.3,0l0,1.4c-0.2,0.1-0.4,0.1-0.6,0.1c-0.2,0-0.4,0-0.7,0.1
		c-0.8,0-1.4-0.2-1.7-0.6c-0.3-0.4-0.5-0.9-0.5-1.6l-0.1-6.8l-1.4,0l0-1.4l1.4,0L182.8,234.6z"/>
	<path id="XMLID_1835_" style="fill:#FF6400;" d="M194.6,237.8c0.7,0.4,1.2,0.8,1.5,1.4c0.3,0.5,0.5,1.1,0.6,1.8
		c0.1,0.5,0.1,1.2,0.1,2.3l-7.5-0.2c0,1.1,0.2,1.9,0.7,2.5c0.4,0.6,1.1,1,2.1,1c0.9,0,1.6-0.3,2.2-0.8c0.3-0.3,0.5-0.7,0.7-1.2
		l1.7,0c-0.1,0.4-0.2,0.8-0.5,1.3c-0.3,0.5-0.6,0.8-0.9,1.1c-0.5,0.5-1.2,0.8-2,1c-0.4,0.1-0.9,0.1-1.4,0.1c-1.3,0-2.3-0.5-3.2-1.5
		c-0.9-1-1.3-2.3-1.2-4c0-1.7,0.5-3,1.4-4c0.9-1,2.1-1.5,3.5-1.5C193.2,237.2,193.9,237.4,194.6,237.8z M195.1,241.9
		c-0.1-0.8-0.2-1.4-0.4-1.8c-0.5-0.8-1.2-1.3-2.3-1.3c-0.8,0-1.5,0.3-2,0.8c-0.5,0.6-0.8,1.3-0.9,2.2L195.1,241.9z"/>
	<path id="XMLID_1838_" style="fill:#FF6400;" d="M199.8,237.6l1.7,0.2l-0.1,1.5c0.5-0.5,0.9-0.8,1.2-1c0.6-0.3,1.3-0.5,2-0.4
		c0.8,0.1,1.5,0.4,1.9,0.8c0.3,0.3,0.5,0.6,0.7,1.1c0.4-0.5,0.9-0.9,1.5-1.1c0.5-0.2,1.1-0.3,1.8-0.2c1.4,0.1,2.3,0.7,2.7,1.8
		c0.2,0.6,0.3,1.3,0.2,2.2l-0.7,6.8l-1.8-0.2l0.7-7.1c0.1-0.7-0.1-1.2-0.4-1.5c-0.3-0.3-0.7-0.5-1.2-0.5c-0.7-0.1-1.3,0.1-1.8,0.5
		c-0.5,0.4-0.9,1.1-1,2.2l-0.6,6l-1.8-0.2l0.7-6.7c0.1-0.7,0-1.2-0.1-1.5c-0.2-0.5-0.7-0.8-1.4-0.9c-0.7-0.1-1.3,0.1-1.9,0.6
		s-0.9,1.3-1.1,2.7l-0.6,5.4l-1.7-0.2L199.8,237.6z"/>
	<path id="XMLID_1840_" style="fill:#FF6400;" d="M216.4,246.7c0,0.6,0,1,0.2,1.4c0.3,0.6,1.1,1,2.1,1.2c0.6,0.1,1.2,0.1,1.8-0.1
		c0.5-0.2,0.9-0.6,1-1.1c0.1-0.4-0.1-0.8-0.4-1.1c-0.2-0.2-0.7-0.4-1.4-0.7l-1.3-0.6c-0.8-0.4-1.4-0.7-1.8-1.1
		c-0.7-0.6-0.9-1.3-0.8-2.1c0.2-1,0.7-1.7,1.5-2.1c0.8-0.5,1.8-0.6,3-0.4c1.6,0.3,2.6,0.9,3.1,1.9c0.3,0.6,0.4,1.3,0.3,1.9l-1.6-0.3
		c0-0.4,0-0.8-0.2-1.1c-0.3-0.5-1-0.9-2-1c-0.7-0.1-1.2-0.1-1.6,0.1c-0.4,0.2-0.6,0.5-0.7,0.9c-0.1,0.4,0.1,0.8,0.5,1.2
		c0.2,0.2,0.6,0.4,1.1,0.6l1.1,0.5c1.2,0.5,2,1,2.4,1.3c0.6,0.6,0.8,1.3,0.6,2.2c-0.2,0.9-0.6,1.6-1.5,2.2s-1.9,0.7-3.3,0.4
		c-1.5-0.3-2.6-0.8-3.1-1.6s-0.7-1.7-0.6-2.7L216.4,246.7z"/>
</g>
<g id="XMLID_1805_">
	<path id="XMLID_1806_" style="fill:#FF6400;" d="M150.7,213.8l1.7-0.3l0.9,5.1c0.3-0.6,0.7-1,1.1-1.4c0.5-0.3,1-0.6,1.6-0.7
		c1.3-0.2,2.4,0,3.3,0.8c0.9,0.7,1.6,1.9,1.9,3.6c0.3,1.6,0.1,3-0.5,4.2c-0.6,1.2-1.6,1.9-3,2.2c-0.8,0.1-1.5,0.1-2.1-0.2
		c-0.4-0.2-0.8-0.5-1.2-0.9l0.2,1.3l-1.6,0.3L150.7,213.8z M159.3,224.3c0.3-0.8,0.4-1.8,0.2-3c-0.2-1.1-0.6-1.9-1.2-2.5
		c-0.6-0.6-1.3-0.9-2.2-0.7c-0.8,0.1-1.4,0.5-1.9,1.2c-0.5,0.7-0.6,1.7-0.4,3c0.2,1,0.4,1.7,0.8,2.3c0.6,1,1.6,1.5,2.8,1.2
		C158.3,225.6,158.9,225.1,159.3,224.3z"/>
	<path id="XMLID_1809_" style="fill:#FF6400;" d="M169.1,215.3c0.7,0.3,1.3,0.6,1.7,1.1c0.4,0.5,0.7,1.1,0.9,1.7
		c0.2,0.5,0.3,1.2,0.4,2.2l-7.5,0.8c0.2,1,0.5,1.8,1,2.4c0.5,0.6,1.3,0.8,2.2,0.7c0.9-0.1,1.6-0.5,2-1.1c0.3-0.4,0.4-0.8,0.5-1.3
		l1.7-0.2c0,0.4-0.1,0.8-0.3,1.3c-0.2,0.5-0.4,0.9-0.7,1.2c-0.5,0.6-1.1,1-1.8,1.3c-0.4,0.1-0.9,0.3-1.4,0.3c-1.3,0.1-2.4-0.2-3.4-1
		c-1-0.8-1.6-2.1-1.8-3.7c-0.2-1.6,0.1-3,0.9-4.2c0.8-1.1,1.9-1.8,3.3-1.9C167.7,214.9,168.4,215,169.1,215.3z M170.2,219.2
		c-0.2-0.7-0.4-1.3-0.7-1.7c-0.6-0.8-1.4-1.1-2.5-1c-0.8,0.1-1.4,0.4-1.9,1.1c-0.5,0.6-0.7,1.4-0.6,2.3L170.2,219.2z"/>
	<path id="XMLID_1812_" style="fill:#FF6400;" d="M174.1,211.7l1.7-0.1l0.2,2.9l1.6-0.1l0.1,1.4l-1.6,0.1l0.5,6.7
		c0,0.4,0.2,0.6,0.4,0.7c0.1,0.1,0.4,0.1,0.7,0.1c0.1,0,0.2,0,0.3,0c0.1,0,0.2,0,0.3-0.1l0.1,1.4c-0.2,0.1-0.4,0.1-0.6,0.2
		c-0.2,0-0.4,0.1-0.7,0.1c-0.8,0.1-1.4-0.1-1.7-0.5c-0.3-0.4-0.5-0.9-0.5-1.6l-0.5-6.8L173,216l-0.1-1.4l1.4-0.1L174.1,211.7z"/>
	<path id="XMLID_1814_" style="fill:#FF6400;" d="M179.9,211.3l1.8-0.1l0.1,2.9l1.6-0.1l0.1,1.4l-1.6,0.1l0.2,6.7
		c0,0.4,0.1,0.6,0.4,0.7c0.1,0.1,0.4,0.1,0.7,0.1c0.1,0,0.2,0,0.3,0c0.1,0,0.2,0,0.3,0l0.1,1.4c-0.2,0.1-0.4,0.1-0.6,0.1
		c-0.2,0-0.4,0.1-0.7,0.1c-0.8,0-1.4-0.2-1.7-0.6s-0.5-0.9-0.5-1.6l-0.2-6.8l-1.4,0.1l-0.1-1.4l1.4-0.1L179.9,211.3z"/>
	<path id="XMLID_1816_" style="fill:#FF6400;" d="M191.8,214.3c0.7,0.4,1.2,0.8,1.5,1.4c0.3,0.5,0.6,1.1,0.7,1.8
		c0.1,0.5,0.1,1.2,0.1,2.3l-7.5-0.1c0,1.1,0.3,1.9,0.7,2.5c0.5,0.6,1.2,1,2.1,1c0.9,0,1.6-0.3,2.2-0.9c0.3-0.3,0.5-0.7,0.6-1.2
		l1.7,0c0,0.4-0.2,0.8-0.5,1.3c-0.3,0.5-0.5,0.8-0.9,1.1c-0.5,0.5-1.2,0.8-2,1c-0.4,0.1-0.9,0.1-1.4,0.1c-1.3,0-2.4-0.5-3.2-1.4
		c-0.9-0.9-1.3-2.3-1.3-3.9c0-1.7,0.5-3,1.4-4c0.9-1,2.1-1.5,3.5-1.5C190.4,213.8,191.1,214,191.8,214.3z M192.4,218.4
		c-0.1-0.8-0.2-1.4-0.5-1.8c-0.5-0.8-1.2-1.3-2.3-1.3c-0.8,0-1.5,0.3-2,0.8c-0.5,0.6-0.8,1.3-0.9,2.2L192.4,218.4z"/>
	<path id="XMLID_1819_" style="fill:#FF6400;" d="M196.8,214.2l1.6,0.1l-0.1,1.8c0.2-0.3,0.5-0.7,1.1-1.2c0.6-0.5,1.2-0.7,1.9-0.6
		c0,0,0.1,0,0.2,0c0.1,0,0.2,0,0.4,0.1l-0.1,1.8c-0.1,0-0.2,0-0.3-0.1c-0.1,0-0.2,0-0.3,0c-0.9-0.1-1.6,0.2-2.1,0.7
		c-0.5,0.5-0.8,1.2-0.8,1.9l-0.3,5.9l-1.7-0.1L196.8,214.2z"/>
	<path id="XMLID_1821_" style="fill:#FF6400;" d="M213.1,211.9l2.1,0.3l3.1,14.7l-2.1-0.3l-0.9-4.4l-5.5-0.8l-2.1,4l-1.9-0.3
		L213.1,211.9z M215.1,220.6l-1.3-6.5l-3.1,5.9L215.1,220.6z"/>
	<path id="XMLID_1824_" style="fill:#FF6400;" d="M223,213.5l1.9,0.4l-2.7,13.9l-1.9-0.4L223,213.5z"/>
</g>
<g id="XMLID_1534_">
	<path id="XMLID_1535_" d="M256.8,381.3h2.6v2.2c0.6-0.8,1.2-1.3,1.7-1.7c0.9-0.6,1.8-0.9,2.9-0.9c1.2,0,2.2,0.3,3,0.9
		c0.4,0.3,0.8,0.9,1.1,1.5c0.6-0.8,1.2-1.4,2-1.8c0.8-0.4,1.6-0.6,2.6-0.6c2.1,0,3.5,0.7,4.2,2.2c0.4,0.8,0.6,1.9,0.6,3.2v10.2h-2.7
		V386c0-1-0.3-1.7-0.8-2.1c-0.5-0.4-1.1-0.6-1.9-0.6c-1,0-1.9,0.3-2.6,1c-0.7,0.7-1.1,1.8-1.1,3.4v8.9h-2.6v-10c0-1-0.1-1.8-0.4-2.3
		c-0.4-0.7-1.1-1.1-2.2-1.1c-1,0-1.9,0.4-2.7,1.1c-0.8,0.8-1.2,2.1-1.2,4.1v8.2h-2.6V381.3z"/>
	<path id="XMLID_1537_" d="M292.5,382.8c1.4,1.3,2,3.3,2,5.8c0,2.5-0.6,4.5-1.8,6.1c-1.2,1.6-3.1,2.4-5.6,2.4c-2.1,0-3.8-0.7-5-2.1
		c-1.2-1.4-1.9-3.3-1.9-5.8c0-2.6,0.7-4.6,2-6.2c1.3-1.5,3.1-2.3,5.2-2.3C289.4,380.8,291.1,381.5,292.5,382.8z M290.9,393
		c0.6-1.3,0.9-2.7,0.9-4.3c0-1.4-0.2-2.6-0.7-3.5c-0.7-1.4-2-2.1-3.7-2.1c-1.6,0-2.7,0.6-3.4,1.8c-0.7,1.2-1.1,2.7-1.1,4.4
		c0,1.6,0.4,3,1.1,4.1c0.7,1.1,1.8,1.6,3.4,1.6C289.1,395,290.2,394.3,290.9,393z"/>
	<path id="XMLID_1540_" d="M297.7,381.3h2.5v2.7c0.2-0.5,0.7-1.1,1.5-1.9c0.8-0.7,1.7-1.1,2.7-1.1c0,0,0.1,0,0.2,0
		c0.1,0,0.3,0,0.6,0.1v2.7c-0.2,0-0.3,0-0.4-0.1c-0.1,0-0.3,0-0.4,0c-1.3,0-2.3,0.4-3,1.3c-0.7,0.8-1,1.8-1,2.9v8.8h-2.6V381.3z"/>
	<path id="XMLID_1542_" d="M317,381.7c1,0.5,1.8,1.2,2.3,2c0.5,0.8,0.9,1.7,1,2.7c0.2,0.7,0.2,1.8,0.2,3.4h-11.2
		c0,1.6,0.4,2.8,1.1,3.8c0.7,0.9,1.7,1.4,3.2,1.4c1.3,0,2.4-0.4,3.2-1.3c0.4-0.5,0.8-1.1,0.9-1.8h2.5c-0.1,0.6-0.3,1.2-0.7,1.9
		c-0.4,0.7-0.8,1.3-1.3,1.7c-0.8,0.8-1.7,1.3-2.9,1.6c-0.6,0.2-1.3,0.2-2.1,0.2c-1.9,0-3.5-0.7-4.8-2.1c-1.3-1.4-2-3.3-2-5.9
		c0-2.5,0.7-4.5,2-6c1.3-1.5,3.1-2.3,5.2-2.3C314.9,380.9,315.9,381.2,317,381.7z M317.9,387.7c-0.1-1.1-0.3-2-0.7-2.7
		c-0.7-1.2-1.9-1.9-3.5-1.9c-1.2,0-2.2,0.4-3,1.3c-0.8,0.9-1.2,1.9-1.3,3.3H317.9z"/>
	<path id="XMLID_1545_" d="M331.8,381.4h2.5v2c0.5-0.7,1.1-1.2,1.7-1.6c0.9-0.6,1.9-0.9,3.1-0.9c1.7,0,3.2,0.7,4.4,2
		c1.2,1.3,1.8,3.2,1.8,5.7c0,3.3-0.9,5.7-2.6,7.2c-1.1,0.9-2.4,1.4-3.9,1.4c-1.2,0-2.1-0.3-2.9-0.8c-0.5-0.3-1-0.8-1.5-1.5v7.9h-2.6
		V381.4z M341.5,393.4c0.8-1,1.2-2.5,1.2-4.5c0-1.2-0.2-2.3-0.5-3.2c-0.7-1.7-1.9-2.5-3.7-2.5c-1.8,0-3,0.9-3.7,2.7
		c-0.4,1-0.5,2.2-0.5,3.6c0,1.2,0.2,2.2,0.5,3c0.7,1.6,1.9,2.4,3.7,2.4C339.7,394.9,340.7,394.4,341.5,393.4z"/>
	<path id="XMLID_1548_" d="M359.5,382.8c1.4,1.3,2,3.3,2,5.8c0,2.5-0.6,4.5-1.8,6.1c-1.2,1.6-3.1,2.4-5.6,2.4c-2.1,0-3.8-0.7-5-2.1
		c-1.2-1.4-1.9-3.3-1.9-5.8c0-2.6,0.7-4.6,2-6.2c1.3-1.5,3.1-2.3,5.2-2.3C356.5,380.8,358.1,381.5,359.5,382.8z M357.9,393
		c0.6-1.3,0.9-2.7,0.9-4.3c0-1.4-0.2-2.6-0.7-3.5c-0.7-1.4-2-2.1-3.7-2.1c-1.6,0-2.7,0.6-3.4,1.8c-0.7,1.2-1.1,2.7-1.1,4.4
		c0,1.6,0.4,3,1.1,4.1c0.7,1.1,1.8,1.6,3.4,1.6C356.1,395,357.2,394.3,357.9,393z"/>
	<path id="XMLID_1551_" d="M365.9,381.3l3,12.1l3-12.1h2.9l3,12l3.1-12h2.6l-4.5,15.4h-2.7l-3.1-11.9l-3,11.9h-2.7l-4.4-15.4H365.9z
		"/>
	<path id="XMLID_1553_" d="M395.4,381.7c1,0.5,1.8,1.2,2.3,2c0.5,0.8,0.9,1.7,1,2.7c0.2,0.7,0.2,1.8,0.2,3.4h-11.2
		c0,1.6,0.4,2.8,1.1,3.8c0.7,0.9,1.7,1.4,3.2,1.4c1.3,0,2.4-0.4,3.2-1.3c0.4-0.5,0.8-1.1,0.9-1.8h2.5c-0.1,0.6-0.3,1.2-0.7,1.9
		c-0.4,0.7-0.8,1.3-1.3,1.7c-0.8,0.8-1.7,1.3-2.9,1.6c-0.6,0.2-1.3,0.2-2.1,0.2c-1.9,0-3.5-0.7-4.8-2.1c-1.3-1.4-2-3.3-2-5.9
		c0-2.5,0.7-4.5,2-6s3.1-2.3,5.2-2.3C393.4,380.9,394.4,381.2,395.4,381.7z M396.4,387.7c-0.1-1.1-0.3-2-0.7-2.7
		c-0.7-1.2-1.9-1.9-3.5-1.9c-1.2,0-2.2,0.4-3,1.3c-0.8,0.9-1.2,1.9-1.3,3.3H396.4z"/>
	<path id="XMLID_1556_" d="M402.4,381.3h2.5v2.7c0.2-0.5,0.7-1.1,1.5-1.9c0.8-0.7,1.7-1.1,2.7-1.1c0,0,0.1,0,0.2,0
		c0.1,0,0.3,0,0.6,0.1v2.7c-0.2,0-0.3,0-0.4-0.1c-0.1,0-0.3,0-0.4,0c-1.3,0-2.3,0.4-3,1.3c-0.7,0.8-1,1.8-1,2.9v8.8h-2.6V381.3z"/>
	<path id="XMLID_1558_" d="M413.3,376.6c0.6-0.9,1.8-1.3,3.5-1.3c0.2,0,0.3,0,0.5,0c0.2,0,0.4,0,0.6,0v2.4c-0.3,0-0.5,0-0.6,0
		c-0.1,0-0.2,0-0.3,0c-0.8,0-1.3,0.2-1.4,0.6c-0.2,0.4-0.2,1.4-0.2,3.1h2.6v2h-2.6v13.3h-2.6v-13.3h-2.1v-2h2.1v-2.4
		C412.8,377.9,412.9,377.1,413.3,376.6z"/>
	<path id="XMLID_1560_" d="M422.8,381.3v10.2c0,0.8,0.1,1.4,0.4,1.9c0.4,0.9,1.3,1.4,2.5,1.4c1.8,0,2.9-0.8,3.6-2.4
		c0.3-0.9,0.5-2,0.5-3.5v-7.6h2.6v15.4h-2.4l0-2.3c-0.3,0.6-0.7,1.1-1.2,1.5c-1,0.8-2.1,1.2-3.5,1.2c-2.2,0-3.6-0.7-4.4-2.2
		c-0.4-0.8-0.6-1.8-0.6-3.1v-10.5H422.8z"/>
	<path id="XMLID_1565_" d="M436.7,375.6h2.6v21.1h-2.6V375.6z"/>
	<path id="XMLID_1567_" d="M215.5,420.6c1.1,0.8,1.7,2.3,2,4.4h-2.5c-0.2-0.9-0.5-1.7-1-2.4c-0.5-0.6-1.4-0.9-2.6-0.9
		c-1.6,0-2.8,0.8-3.5,2.4c-0.5,1-0.7,2.3-0.7,3.9c0,1.5,0.3,2.8,1,3.9c0.7,1.1,1.7,1.6,3.1,1.6c1.1,0,1.9-0.3,2.5-1
		c0.6-0.7,1.1-1.5,1.3-2.7h2.5c-0.3,2-1,3.5-2.2,4.5c-1.1,0.9-2.6,1.4-4.4,1.4c-2,0-3.6-0.7-4.8-2.2c-1.2-1.5-1.8-3.3-1.8-5.5
		c0-2.7,0.7-4.8,2-6.3c1.3-1.5,3-2.3,5-2.3C213,419.3,214.4,419.7,215.5,420.6z"/>
	<path id="XMLID_1569_" d="M231.2,421.3c1.4,1.3,2,3.3,2,5.8c0,2.5-0.6,4.5-1.8,6.1c-1.2,1.6-3.1,2.4-5.6,2.4c-2.1,0-3.8-0.7-5-2.1
		c-1.2-1.4-1.9-3.3-1.9-5.8c0-2.6,0.7-4.6,2-6.2c1.3-1.5,3.1-2.3,5.2-2.3C228.1,419.3,229.8,419.9,231.2,421.3z M229.5,431.5
		c0.6-1.3,0.9-2.7,0.9-4.3c0-1.4-0.2-2.6-0.7-3.5c-0.7-1.4-2-2.1-3.7-2.1c-1.6,0-2.7,0.6-3.4,1.8c-0.7,1.2-1.1,2.7-1.1,4.4
		c0,1.6,0.4,3,1.1,4.1s1.8,1.6,3.4,1.6C227.8,433.4,228.9,432.8,229.5,431.5z"/>
	<path id="XMLID_1572_" d="M244.9,420.4c0.5,0.3,1,0.8,1.5,1.5v-1.9h2.4v14c0,2-0.3,3.5-0.9,4.6c-1.1,2.1-3.1,3.1-6.1,3.1
		c-1.7,0-3-0.4-4.2-1.1c-1.1-0.7-1.8-1.9-1.9-3.5h2.6c0.1,0.7,0.4,1.2,0.7,1.6c0.6,0.6,1.5,0.9,2.7,0.9c2,0,3.3-0.7,3.9-2.1
		c0.4-0.8,0.5-2.3,0.5-4.4c-0.5,0.8-1.1,1.4-1.9,1.8s-1.7,0.6-2.9,0.6c-1.7,0-3.1-0.6-4.4-1.8c-1.2-1.2-1.9-3.1-1.9-5.9
		c0-2.6,0.6-4.6,1.9-6c1.3-1.4,2.8-2.2,4.5-2.2C243,419.5,244,419.8,244.9,420.4z M245.2,423.1c-0.8-0.9-1.8-1.4-3-1.4
		c-1.8,0-3,0.9-3.7,2.6c-0.4,0.9-0.5,2.1-0.5,3.6c0,1.7,0.4,3.1,1.1,4c0.7,0.9,1.6,1.4,2.8,1.4c1.8,0,3.1-0.8,3.9-2.5
		c0.4-0.9,0.6-2.1,0.6-3.3C246.4,425.5,246,424,245.2,423.1z"/>
	<path id="XMLID_1575_" d="M252.7,419.7h2.5v2.2c0.7-0.9,1.5-1.5,2.3-1.9c0.8-0.4,1.7-0.6,2.7-0.6c2.2,0,3.7,0.8,4.4,2.3
		c0.4,0.8,0.6,2,0.6,3.6v9.9h-2.6v-9.7c0-0.9-0.1-1.7-0.4-2.3c-0.5-1-1.3-1.4-2.5-1.4c-0.6,0-1.1,0.1-1.5,0.2
		c-0.7,0.2-1.3,0.6-1.9,1.3c-0.4,0.5-0.7,1-0.8,1.6c-0.1,0.5-0.2,1.3-0.2,2.3v8.1h-2.6V419.7z"/>
	<path id="XMLID_1577_" d="M269.1,414h2.6v2.9h-2.6V414z M269.1,419.8h2.6v15.3h-2.6V419.8z"/>
	<path id="XMLID_1580_" d="M276.1,415.4h2.6v4.3h2.5v2.1h-2.5v10c0,0.5,0.2,0.9,0.5,1.1c0.2,0.1,0.5,0.2,1,0.2c0.1,0,0.3,0,0.4,0
		c0.1,0,0.3,0,0.5,0v2.1c-0.3,0.1-0.6,0.1-0.9,0.2c-0.3,0-0.7,0.1-1,0.1c-1.2,0-2-0.3-2.5-0.9c-0.4-0.6-0.6-1.4-0.6-2.4v-10.2H274
		v-2.1h2.1V415.4z"/>
	<path id="XMLID_1582_" d="M283.8,414h2.6v2.9h-2.6V414z M283.8,419.8h2.6v15.3h-2.6V419.8z"/>
	<path id="XMLID_1585_" d="M291.6,419.7l4.1,12.5l4.3-12.5h2.8l-5.8,15.4h-2.8l-5.7-15.4H291.6z"/>
	<path id="XMLID_1587_" d="M314.5,420.2c1,0.5,1.8,1.2,2.3,2c0.5,0.8,0.9,1.7,1,2.7c0.2,0.7,0.2,1.8,0.2,3.4h-11.2
		c0,1.6,0.4,2.8,1.1,3.8s1.7,1.4,3.2,1.4c1.3,0,2.4-0.4,3.2-1.3c0.4-0.5,0.8-1.1,0.9-1.8h2.5c-0.1,0.6-0.3,1.2-0.7,1.9
		c-0.4,0.7-0.8,1.3-1.3,1.7c-0.8,0.8-1.7,1.3-2.9,1.6c-0.6,0.2-1.3,0.2-2.1,0.2c-1.9,0-3.5-0.7-4.8-2.1c-1.3-1.4-2-3.3-2-5.9
		c0-2.5,0.7-4.5,2-6s3.1-2.3,5.2-2.3C312.4,419.4,313.5,419.6,314.5,420.2z M315.4,426.2c-0.1-1.1-0.3-2-0.7-2.7
		c-0.7-1.2-1.9-1.9-3.5-1.9c-1.2,0-2.2,0.4-3,1.3c-0.8,0.9-1.2,1.9-1.3,3.3H315.4z"/>
	<path id="XMLID_1590_" d="M330,415.4h2.6v4.3h2.5v2.1h-2.5v10c0,0.5,0.2,0.9,0.5,1.1c0.2,0.1,0.5,0.2,1,0.2c0.1,0,0.3,0,0.4,0
		c0.1,0,0.3,0,0.5,0v2.1c-0.3,0.1-0.6,0.1-0.9,0.2c-0.3,0-0.7,0.1-1,0.1c-1.2,0-2-0.3-2.5-0.9c-0.4-0.6-0.6-1.4-0.6-2.4v-10.2H328
		v-2.1h2.1V415.4z"/>
	<path id="XMLID_1772_" d="M347.2,420.2c1,0.5,1.8,1.2,2.3,2c0.5,0.8,0.9,1.7,1,2.7c0.2,0.7,0.2,1.8,0.2,3.4h-11.2
		c0,1.6,0.4,2.8,1.1,3.8s1.7,1.4,3.2,1.4c1.3,0,2.4-0.4,3.2-1.3c0.4-0.5,0.8-1.1,0.9-1.8h2.5c-0.1,0.6-0.3,1.2-0.7,1.9
		c-0.4,0.7-0.8,1.3-1.3,1.7c-0.8,0.8-1.7,1.3-2.9,1.6c-0.6,0.2-1.3,0.2-2.1,0.2c-1.9,0-3.5-0.7-4.8-2.1c-1.3-1.4-2-3.3-2-5.9
		c0-2.5,0.7-4.5,2-6s3.1-2.3,5.2-2.3C345.1,419.4,346.2,419.6,347.2,420.2z M348.1,426.2c-0.1-1.1-0.3-2-0.7-2.7
		c-0.7-1.2-1.9-1.9-3.5-1.9c-1.2,0-2.2,0.4-3,1.3c-0.8,0.9-1.2,1.9-1.3,3.3H348.1z"/>
	<path id="XMLID_1775_" d="M364.2,420.6c1.1,0.8,1.7,2.3,2,4.4h-2.5c-0.2-0.9-0.5-1.7-1-2.4c-0.5-0.6-1.4-0.9-2.6-0.9
		c-1.6,0-2.8,0.8-3.5,2.4c-0.5,1-0.7,2.3-0.7,3.9c0,1.5,0.3,2.8,1,3.9c0.7,1.1,1.7,1.6,3.1,1.6c1.1,0,1.9-0.3,2.5-1
		c0.6-0.7,1.1-1.5,1.3-2.7h2.5c-0.3,2-1,3.5-2.2,4.5c-1.1,0.9-2.6,1.4-4.4,1.4c-2,0-3.6-0.7-4.8-2.2c-1.2-1.5-1.8-3.3-1.8-5.5
		c0-2.7,0.7-4.8,2-6.3c1.3-1.5,3-2.3,5-2.3C361.7,419.3,363.1,419.7,364.2,420.6z"/>
	<path id="XMLID_1777_" d="M368.8,413.9h2.6v7.9c0.6-0.8,1.2-1.3,1.7-1.6c0.8-0.5,1.9-0.8,3.1-0.8c2.2,0,3.7,0.8,4.5,2.3
		c0.4,0.9,0.6,2,0.6,3.5v9.9h-2.7v-9.7c0-1.1-0.1-2-0.4-2.5c-0.5-0.8-1.3-1.3-2.6-1.3c-1.1,0-2,0.4-2.9,1.1
		c-0.9,0.7-1.3,2.1-1.3,4.2v8.2h-2.6V413.9z"/>
	<path id="XMLID_1779_" d="M385.1,419.7h2.5v2.2c0.7-0.9,1.5-1.5,2.3-1.9c0.8-0.4,1.7-0.6,2.7-0.6c2.2,0,3.7,0.8,4.4,2.3
		c0.4,0.8,0.6,2,0.6,3.6v9.9H395v-9.7c0-0.9-0.1-1.7-0.4-2.3c-0.5-1-1.3-1.4-2.5-1.4c-0.6,0-1.1,0.1-1.5,0.2
		c-0.7,0.2-1.3,0.6-1.9,1.3c-0.4,0.5-0.7,1-0.8,1.6c-0.1,0.5-0.2,1.3-0.2,2.3v8.1h-2.6V419.7z"/>
	<path id="XMLID_1781_" d="M412.6,421.3c1.4,1.3,2,3.3,2,5.8c0,2.5-0.6,4.5-1.8,6.1c-1.2,1.6-3.1,2.4-5.6,2.4c-2.1,0-3.8-0.7-5-2.1
		c-1.2-1.4-1.9-3.3-1.9-5.8c0-2.6,0.7-4.6,2-6.2c1.3-1.5,3.1-2.3,5.2-2.3C409.6,419.3,411.2,419.9,412.6,421.3z M411,431.5
		c0.6-1.3,0.9-2.7,0.9-4.3c0-1.4-0.2-2.6-0.7-3.5c-0.7-1.4-2-2.1-3.7-2.1c-1.6,0-2.7,0.6-3.4,1.8c-0.7,1.2-1.1,2.7-1.1,4.4
		c0,1.6,0.4,3,1.1,4.1c0.7,1.1,1.8,1.6,3.4,1.6C409.2,433.4,410.4,432.8,411,431.5z"/>
	<path id="XMLID_1784_" d="M417.9,414h2.6v21.1h-2.6V414z"/>
	<path id="XMLID_1786_" d="M435.5,421.3c1.4,1.3,2,3.3,2,5.8c0,2.5-0.6,4.5-1.8,6.1c-1.2,1.6-3.1,2.4-5.6,2.4c-2.1,0-3.8-0.7-5-2.1
		c-1.2-1.4-1.9-3.3-1.9-5.8c0-2.6,0.7-4.6,2-6.2c1.3-1.5,3.1-2.3,5.2-2.3C432.5,419.3,434.1,419.9,435.5,421.3z M433.9,431.5
		c0.6-1.3,0.9-2.7,0.9-4.3c0-1.4-0.2-2.6-0.7-3.5c-0.7-1.4-2-2.1-3.7-2.1c-1.6,0-2.7,0.6-3.4,1.8c-0.7,1.2-1.1,2.7-1.1,4.4
		c0,1.6,0.4,3,1.1,4.1c0.7,1.1,1.8,1.6,3.4,1.6C432.1,433.4,433.3,432.8,433.9,431.5z"/>
	<path id="XMLID_1789_" d="M449.3,420.4c0.5,0.3,1,0.8,1.5,1.5v-1.9h2.4v14c0,2-0.3,3.5-0.9,4.6c-1.1,2.1-3.1,3.1-6.1,3.1
		c-1.7,0-3-0.4-4.2-1.1c-1.1-0.7-1.8-1.9-1.9-3.5h2.6c0.1,0.7,0.4,1.2,0.7,1.6c0.6,0.6,1.5,0.9,2.7,0.9c2,0,3.3-0.7,3.9-2.1
		c0.4-0.8,0.5-2.3,0.5-4.4c-0.5,0.8-1.1,1.4-1.9,1.8s-1.7,0.6-2.9,0.6c-1.7,0-3.1-0.6-4.4-1.8c-1.2-1.2-1.9-3.1-1.9-5.9
		c0-2.6,0.6-4.6,1.9-6c1.3-1.4,2.8-2.2,4.5-2.2C447.3,419.5,448.4,419.8,449.3,420.4z M449.6,423.1c-0.8-0.9-1.8-1.4-3-1.4
		c-1.8,0-3,0.9-3.7,2.6c-0.4,0.9-0.5,2.1-0.5,3.6c0,1.7,0.4,3.1,1.1,4c0.7,0.9,1.6,1.4,2.8,1.4c1.8,0,3.1-0.8,3.9-2.5
		c0.4-0.9,0.6-2.1,0.6-3.3C450.7,425.5,450.3,424,449.6,423.1z"/>
	<path id="XMLID_1792_" d="M457.1,414h2.6v2.9h-2.6V414z M457.1,419.8h2.6v15.3h-2.6V419.8z"/>
	<path id="XMLID_1795_" d="M473.1,420.2c1,0.5,1.8,1.2,2.3,2c0.5,0.8,0.9,1.7,1,2.7c0.2,0.7,0.2,1.8,0.2,3.4h-11.2
		c0,1.6,0.4,2.8,1.1,3.8s1.7,1.4,3.2,1.4c1.3,0,2.4-0.4,3.2-1.3c0.4-0.5,0.8-1.1,0.9-1.8h2.5c-0.1,0.6-0.3,1.2-0.7,1.9
		c-0.4,0.7-0.8,1.3-1.3,1.7c-0.8,0.8-1.7,1.3-2.9,1.6c-0.6,0.2-1.3,0.2-2.1,0.2c-1.9,0-3.5-0.7-4.8-2.1c-1.3-1.4-2-3.3-2-5.9
		c0-2.5,0.7-4.5,2-6c1.3-1.5,3.1-2.3,5.2-2.3C471,419.4,472.1,419.6,473.1,420.2z M474,426.2c-0.1-1.1-0.3-2-0.7-2.7
		c-0.7-1.2-1.9-1.9-3.5-1.9c-1.2,0-2.2,0.4-3,1.3c-0.8,0.9-1.2,1.9-1.3,3.3H474z"/>
	<path id="XMLID_1803_" d="M481.5,430.3c0.1,0.9,0.3,1.5,0.7,2c0.7,0.8,1.8,1.2,3.5,1.2c1,0,1.8-0.2,2.6-0.6
		c0.7-0.4,1.1-1.1,1.1-1.9c0-0.7-0.3-1.2-0.9-1.5c-0.4-0.2-1.1-0.5-2.2-0.7l-2.1-0.5c-1.3-0.3-2.3-0.7-2.9-1.1
		c-1.1-0.7-1.7-1.7-1.7-2.9c0-1.5,0.5-2.6,1.6-3.5c1.1-0.9,2.5-1.3,4.3-1.3c2.3,0,4,0.7,5.1,2c0.7,0.9,1,1.8,0.9,2.8h-2.4
		c0-0.6-0.3-1.1-0.6-1.6c-0.6-0.7-1.7-1-3.2-1c-1,0-1.8,0.2-2.3,0.6c-0.5,0.4-0.8,0.9-0.8,1.5c0,0.7,0.3,1.2,1,1.6
		c0.4,0.2,1,0.4,1.7,0.6l1.7,0.4c1.9,0.4,3.2,0.9,3.8,1.3c1,0.7,1.5,1.7,1.5,3.1c0,1.4-0.5,2.6-1.6,3.5c-1.1,1-2.7,1.5-4.8,1.5
		c-2.3,0-4-0.5-4.9-1.6c-1-1-1.5-2.3-1.5-3.9H481.5z"/>
</g>
<g id="XMLID_1445_">
	<path id="XMLID_1446_" d="M-65.2,381.3h2.6v2.2c0.6-0.8,1.2-1.3,1.7-1.7c0.9-0.6,1.8-0.9,2.9-0.9c1.2,0,2.2,0.3,3,0.9
		c0.4,0.3,0.8,0.9,1.1,1.5c0.6-0.8,1.2-1.4,2-1.8c0.8-0.4,1.6-0.6,2.6-0.6c2.1,0,3.5,0.7,4.2,2.2c0.4,0.8,0.6,1.9,0.6,3.2v10.2h-2.7
		V386c0-1-0.3-1.7-0.8-2.1s-1.1-0.6-1.9-0.6c-1,0-1.9,0.3-2.6,1c-0.7,0.7-1.1,1.8-1.1,3.4v8.9h-2.6v-10c0-1-0.1-1.8-0.4-2.3
		c-0.4-0.7-1.1-1.1-2.2-1.1c-1,0-1.9,0.4-2.7,1.1c-0.8,0.8-1.2,2.1-1.2,4.1v8.2h-2.6V381.3z"/>
	<path id="XMLID_1448_" d="M-29.5,382.8c1.4,1.3,2,3.3,2,5.8c0,2.5-0.6,4.5-1.8,6.1c-1.2,1.6-3.1,2.4-5.6,2.4c-2.1,0-3.8-0.7-5-2.1
		c-1.2-1.4-1.9-3.3-1.9-5.8c0-2.6,0.7-4.6,2-6.2c1.3-1.5,3.1-2.3,5.2-2.3C-32.6,380.8-30.9,381.5-29.5,382.8z M-31.1,393
		c0.6-1.3,0.9-2.7,0.9-4.3c0-1.4-0.2-2.6-0.7-3.5c-0.7-1.4-2-2.1-3.7-2.1c-1.6,0-2.7,0.6-3.4,1.8s-1.1,2.7-1.1,4.4
		c0,1.6,0.4,3,1.1,4.1s1.8,1.6,3.4,1.6C-32.9,395-31.8,394.3-31.1,393z"/>
	<path id="XMLID_1451_" d="M-24.2,381.3h2.5v2.7c0.2-0.5,0.7-1.1,1.5-1.9c0.8-0.7,1.7-1.1,2.7-1.1c0,0,0.1,0,0.2,0
		c0.1,0,0.3,0,0.6,0.1v2.7c-0.2,0-0.3,0-0.4-0.1c-0.1,0-0.3,0-0.4,0c-1.3,0-2.3,0.4-3,1.3c-0.7,0.8-1,1.8-1,2.9v8.8h-2.6V381.3z"/>
	<path id="XMLID_1453_" d="M-5,381.7c1,0.5,1.8,1.2,2.3,2c0.5,0.8,0.9,1.7,1,2.7c0.2,0.7,0.2,1.8,0.2,3.4h-11.2
		c0,1.6,0.4,2.8,1.1,3.8c0.7,0.9,1.7,1.4,3.2,1.4c1.3,0,2.4-0.4,3.2-1.3c0.4-0.5,0.8-1.1,0.9-1.8h2.5c-0.1,0.6-0.3,1.2-0.7,1.9
		c-0.4,0.7-0.8,1.3-1.3,1.7c-0.8,0.8-1.7,1.3-2.9,1.6c-0.6,0.2-1.3,0.2-2.1,0.2c-1.9,0-3.5-0.7-4.8-2.1c-1.3-1.4-2-3.3-2-5.9
		c0-2.5,0.7-4.5,2-6c1.3-1.5,3.1-2.3,5.2-2.3C-7.1,380.9-6,381.2-5,381.7z M-4.1,387.7c-0.1-1.1-0.3-2-0.7-2.7
		c-0.7-1.2-1.9-1.9-3.5-1.9c-1.2,0-2.2,0.4-3,1.3c-0.8,0.9-1.2,1.9-1.3,3.3H-4.1z"/>
	<path id="XMLID_1456_" d="M9.8,381.4h2.5v2c0.5-0.7,1.1-1.2,1.7-1.6c0.9-0.6,1.9-0.9,3.1-0.9c1.7,0,3.2,0.7,4.4,2
		c1.2,1.3,1.8,3.2,1.8,5.7c0,3.3-0.9,5.7-2.6,7.2c-1.1,0.9-2.4,1.4-3.9,1.4c-1.2,0-2.1-0.3-2.9-0.8c-0.5-0.3-1-0.8-1.5-1.5v7.9H9.8
		V381.4z M19.5,393.4c0.8-1,1.2-2.5,1.2-4.5c0-1.2-0.2-2.3-0.5-3.2c-0.7-1.7-1.9-2.5-3.7-2.5c-1.8,0-3,0.9-3.7,2.7
		c-0.4,1-0.5,2.2-0.5,3.6c0,1.2,0.2,2.2,0.5,3c0.7,1.6,1.9,2.4,3.7,2.4C17.7,394.9,18.7,394.4,19.5,393.4z"/>
	<path id="XMLID_1459_" d="M37.5,382.8c1.4,1.3,2,3.3,2,5.8c0,2.5-0.6,4.5-1.8,6.1c-1.2,1.6-3.1,2.4-5.6,2.4c-2.1,0-3.8-0.7-5-2.1
		c-1.2-1.4-1.9-3.3-1.9-5.8c0-2.6,0.7-4.6,2-6.2c1.3-1.5,3.1-2.3,5.2-2.3C34.5,380.8,36.1,381.5,37.5,382.8z M35.9,393
		c0.6-1.3,0.9-2.7,0.9-4.3c0-1.4-0.2-2.6-0.7-3.5c-0.7-1.4-2-2.1-3.7-2.1c-1.6,0-2.7,0.6-3.4,1.8s-1.1,2.7-1.1,4.4
		c0,1.6,0.4,3,1.1,4.1s1.8,1.6,3.4,1.6C34.1,395,35.3,394.3,35.9,393z"/>
	<path id="XMLID_1462_" d="M43.9,381.3l3,12.1l3-12.1h2.9l3,12l3.1-12h2.6L57,396.7h-2.7l-3.1-11.9l-3,11.9h-2.7l-4.4-15.4H43.9z"/>
	<path id="XMLID_1465_" d="M73.4,381.7c1,0.5,1.8,1.2,2.3,2c0.5,0.8,0.9,1.7,1,2.7c0.2,0.7,0.2,1.8,0.2,3.4H65.8
		c0,1.6,0.4,2.8,1.1,3.8c0.7,0.9,1.7,1.4,3.2,1.4c1.3,0,2.4-0.4,3.2-1.3c0.4-0.5,0.8-1.1,0.9-1.8h2.5c-0.1,0.6-0.3,1.2-0.7,1.9
		c-0.4,0.7-0.8,1.3-1.3,1.7c-0.8,0.8-1.7,1.3-2.9,1.6c-0.6,0.2-1.3,0.2-2.1,0.2c-1.9,0-3.5-0.7-4.8-2.1c-1.3-1.4-2-3.3-2-5.9
		c0-2.5,0.7-4.5,2-6c1.3-1.5,3.1-2.3,5.2-2.3C71.4,380.9,72.4,381.2,73.4,381.7z M74.4,387.7c-0.1-1.1-0.3-2-0.7-2.7
		c-0.7-1.2-1.9-1.9-3.5-1.9c-1.2,0-2.2,0.4-3,1.3c-0.8,0.9-1.2,1.9-1.3,3.3H74.4z"/>
	<path id="XMLID_1471_" d="M80.4,381.3h2.5v2.7c0.2-0.5,0.7-1.1,1.5-1.9c0.8-0.7,1.7-1.1,2.7-1.1c0,0,0.1,0,0.2,0
		c0.1,0,0.3,0,0.6,0.1v2.7c-0.2,0-0.3,0-0.4-0.1c-0.1,0-0.3,0-0.4,0c-1.3,0-2.3,0.4-3,1.3c-0.7,0.8-1,1.8-1,2.9v8.8h-2.6V381.3z"/>
	<path id="XMLID_1473_" d="M91.3,376.6c0.6-0.9,1.8-1.3,3.5-1.3c0.2,0,0.3,0,0.5,0c0.2,0,0.4,0,0.6,0v2.4c-0.3,0-0.5,0-0.6,0
		c-0.1,0-0.2,0-0.3,0c-0.8,0-1.3,0.2-1.4,0.6c-0.2,0.4-0.2,1.4-0.2,3.1h2.6v2h-2.6v13.3h-2.6v-13.3h-2.1v-2h2.1v-2.4
		C90.8,377.9,91,377.1,91.3,376.6z"/>
	<path id="XMLID_1475_" d="M100.8,381.3v10.2c0,0.8,0.1,1.4,0.4,1.9c0.4,0.9,1.3,1.4,2.5,1.4c1.8,0,2.9-0.8,3.6-2.4
		c0.3-0.9,0.5-2,0.5-3.5v-7.6h2.6v15.4h-2.4l0-2.3c-0.3,0.6-0.7,1.1-1.2,1.5c-1,0.8-2.1,1.2-3.5,1.2c-2.2,0-3.6-0.7-4.4-2.2
		c-0.4-0.8-0.6-1.8-0.6-3.1v-10.5H100.8z"/>
	<path id="XMLID_1477_" d="M114.7,375.6h2.6v21.1h-2.6V375.6z"/>
	<path id="XMLID_1479_" d="M-75.4,419.7l3,12.1l3-12.1h2.9l3,12l3.1-12h2.6l-4.5,15.4H-65l-3.1-11.9l-3,11.9h-2.7l-4.4-15.4H-75.4z"
		/>
	<path id="XMLID_1481_" d="M-47.1,425.8c0.6-0.1,1-0.3,1.2-0.7c0.1-0.2,0.2-0.6,0.2-1c0-0.9-0.3-1.5-0.9-1.9
		c-0.6-0.4-1.5-0.6-2.7-0.6c-1.3,0-2.3,0.4-2.9,1.1c-0.3,0.4-0.5,1-0.6,1.8h-2.4c0-1.9,0.7-3.2,1.8-4c1.2-0.7,2.6-1.1,4.1-1.1
		c1.8,0,3.3,0.3,4.4,1c1.1,0.7,1.7,1.8,1.7,3.2v8.9c0,0.3,0.1,0.5,0.2,0.6c0.1,0.2,0.3,0.2,0.7,0.2c0.1,0,0.2,0,0.4,0
		c0.1,0,0.3,0,0.5-0.1v1.9c-0.4,0.1-0.7,0.2-0.9,0.2c-0.2,0-0.5,0-0.9,0c-0.9,0-1.5-0.3-1.9-0.9c-0.2-0.3-0.4-0.8-0.4-1.4
		c-0.5,0.7-1.3,1.3-2.3,1.8c-1,0.5-2.1,0.8-3.3,0.8c-1.4,0-2.6-0.4-3.5-1.3c-0.9-0.9-1.4-1.9-1.4-3.2c0-1.4,0.4-2.5,1.3-3.3
		c0.9-0.8,2.1-1.3,3.5-1.4L-47.1,425.8z M-52.6,432.8c0.5,0.4,1.2,0.6,1.9,0.6c0.9,0,1.8-0.2,2.6-0.6c1.4-0.7,2.2-1.8,2.2-3.4v-2.1
		c-0.3,0.2-0.7,0.4-1.2,0.5c-0.5,0.1-1,0.2-1.5,0.3l-1.6,0.2c-0.9,0.1-1.6,0.3-2.1,0.6c-0.8,0.4-1.2,1.2-1.2,2.1
		C-53.4,431.8-53.1,432.4-52.6,432.8z"/>
	<path id="XMLID_1484_" d="M-29.4,419.7h2.9c-0.4,1-1.2,3.2-2.4,6.8c-0.9,2.6-1.7,4.8-2.4,6.5c-1.5,3.9-2.5,6.3-3.2,7.2
		c-0.6,0.9-1.7,1.3-3.2,1.3c-0.4,0-0.6,0-0.8,0c-0.2,0-0.4-0.1-0.7-0.2v-2.4c0.4,0.1,0.8,0.2,1,0.2s0.4,0,0.5,0
		c0.5,0,0.8-0.1,1.1-0.2c0.2-0.2,0.4-0.4,0.6-0.6c0-0.1,0.2-0.5,0.5-1.2c0.3-0.7,0.5-1.2,0.6-1.6l-5.7-15.8h2.9l4.1,12.5
		L-29.4,419.7z"/>
	<path id="XMLID_1486_" d="M-22.8,430.3c0.1,0.9,0.3,1.5,0.7,2c0.7,0.8,1.8,1.2,3.5,1.2c1,0,1.8-0.2,2.6-0.6
		c0.7-0.4,1.1-1.1,1.1-1.9c0-0.7-0.3-1.2-0.9-1.5c-0.4-0.2-1.1-0.5-2.2-0.7l-2.1-0.5c-1.3-0.3-2.3-0.7-2.9-1.1
		c-1.1-0.7-1.7-1.7-1.7-2.9c0-1.5,0.5-2.6,1.6-3.5c1.1-0.9,2.5-1.3,4.3-1.3c2.3,0,4,0.7,5.1,2c0.6,0.9,1,1.8,0.9,2.8h-2.4
		c0-0.6-0.3-1.1-0.6-1.6c-0.6-0.7-1.7-1-3.2-1c-1,0-1.8,0.2-2.3,0.6c-0.5,0.4-0.8,0.9-0.8,1.5c0,0.7,0.3,1.2,1,1.6
		c0.4,0.2,1,0.4,1.7,0.6l1.7,0.4c1.9,0.4,3.2,0.9,3.8,1.3c1,0.7,1.5,1.7,1.5,3.1c0,1.4-0.5,2.6-1.6,3.5s-2.7,1.5-4.8,1.5
		c-2.3,0-4-0.5-4.9-1.6c-1-1-1.5-2.3-1.5-3.9H-22.8z"/>
	<path id="XMLID_1509_" d="M9.7,421.3c1.4,1.3,2,3.3,2,5.8c0,2.5-0.6,4.5-1.8,6.1c-1.2,1.6-3.1,2.4-5.6,2.4c-2.1,0-3.8-0.7-5-2.1
		c-1.2-1.4-1.9-3.3-1.9-5.8c0-2.6,0.7-4.6,2-6.2c1.3-1.5,3.1-2.3,5.2-2.3C6.7,419.3,8.3,419.9,9.7,421.3z M8.1,431.5
		c0.6-1.3,0.9-2.7,0.9-4.3c0-1.4-0.2-2.6-0.7-3.5c-0.7-1.4-2-2.1-3.7-2.1c-1.6,0-2.7,0.6-3.4,1.8c-0.7,1.2-1.1,2.7-1.1,4.4
		c0,1.6,0.4,3,1.1,4.1s1.8,1.6,3.4,1.6C6.3,433.4,7.5,432.8,8.1,431.5z"/>
	<path id="XMLID_1512_" d="M16.1,415c0.6-0.9,1.8-1.3,3.5-1.3c0.2,0,0.3,0,0.5,0s0.4,0,0.6,0v2.4c-0.3,0-0.5,0-0.6,0
		c-0.1,0-0.2,0-0.3,0c-0.8,0-1.3,0.2-1.4,0.6c-0.2,0.4-0.2,1.4-0.2,3.1h2.6v2h-2.6v13.3h-2.6v-13.3h-2.1v-2h2.1v-2.4
		C15.6,416.3,15.8,415.5,16.1,415z"/>
	<path id="XMLID_1514_" d="M31.8,415.4h2.6v4.3h2.5v2.1h-2.5v10c0,0.5,0.2,0.9,0.5,1.1c0.2,0.1,0.5,0.2,1,0.2c0.1,0,0.3,0,0.4,0
		c0.1,0,0.3,0,0.5,0v2.1c-0.3,0.1-0.6,0.1-0.9,0.2c-0.3,0-0.7,0.1-1,0.1c-1.2,0-2-0.3-2.5-0.9c-0.4-0.6-0.6-1.4-0.6-2.4v-10.2h-2.1
		v-2.1h2.1V415.4z"/>
	<path id="XMLID_1516_" d="M39.4,413.9H42v7.9c0.6-0.8,1.2-1.3,1.7-1.6c0.8-0.5,1.9-0.8,3.1-0.8c2.2,0,3.7,0.8,4.5,2.3
		c0.4,0.9,0.6,2,0.6,3.5v9.9h-2.7v-9.7c0-1.1-0.1-2-0.4-2.5c-0.5-0.8-1.3-1.3-2.6-1.3c-1.1,0-2,0.4-2.9,1.1S42,424.9,42,427v8.2
		h-2.6V413.9z"/>
	<path id="XMLID_1518_" d="M55.8,414h2.6v2.9h-2.6V414z M55.8,419.8h2.6v15.3h-2.6V419.8z"/>
	<path id="XMLID_1522_" d="M62.3,419.7h2.5v2.2c0.7-0.9,1.5-1.5,2.3-1.9c0.8-0.4,1.7-0.6,2.7-0.6c2.2,0,3.7,0.8,4.4,2.3
		c0.4,0.8,0.6,2,0.6,3.6v9.9h-2.6v-9.7c0-0.9-0.1-1.7-0.4-2.3c-0.5-1-1.3-1.4-2.5-1.4c-0.6,0-1.1,0.1-1.5,0.2
		c-0.7,0.2-1.3,0.6-1.9,1.3c-0.4,0.5-0.7,1-0.8,1.6c-0.1,0.5-0.2,1.3-0.2,2.3v8.1h-2.6V419.7z"/>
	<path id="XMLID_1524_" d="M78.6,414h2.5v12.2l6.6-6.5H91l-5.9,5.7l6.2,9.7H88l-4.8-7.8l-2.1,2.1v5.8h-2.5V414z"/>
	<path id="XMLID_1526_" d="M93.3,414H96v2.9h-2.6V414z M93.3,419.8H96v15.3h-2.6V419.8z"/>
	<path id="XMLID_1529_" d="M99.9,419.7h2.5v2.2c0.7-0.9,1.5-1.5,2.3-1.9c0.8-0.4,1.7-0.6,2.7-0.6c2.2,0,3.7,0.8,4.4,2.3
		c0.4,0.8,0.6,2,0.6,3.6v9.9h-2.6v-9.7c0-0.9-0.1-1.7-0.4-2.3c-0.5-1-1.3-1.4-2.5-1.4c-0.6,0-1.1,0.1-1.5,0.2
		c-0.7,0.2-1.3,0.6-1.9,1.3c-0.4,0.5-0.7,1-0.8,1.6c-0.1,0.5-0.2,1.3-0.2,2.3v8.1h-2.6V419.7z"/>
	<path id="XMLID_1531_" d="M124.8,420.4c0.5,0.3,1,0.8,1.5,1.5v-1.9h2.4v14c0,2-0.3,3.5-0.9,4.6c-1.1,2.1-3.1,3.1-6.1,3.1
		c-1.7,0-3-0.4-4.2-1.1c-1.1-0.7-1.8-1.9-1.9-3.5h2.6c0.1,0.7,0.4,1.2,0.7,1.6c0.6,0.6,1.5,0.9,2.7,0.9c2,0,3.3-0.7,3.9-2.1
		c0.4-0.8,0.5-2.3,0.5-4.4c-0.5,0.8-1.1,1.4-1.9,1.8c-0.7,0.4-1.7,0.6-2.9,0.6c-1.7,0-3.1-0.6-4.4-1.8c-1.2-1.2-1.9-3.1-1.9-5.9
		c0-2.6,0.6-4.6,1.9-6c1.3-1.4,2.8-2.2,4.5-2.2C122.8,419.5,123.9,419.8,124.8,420.4z M125.1,423.1c-0.8-0.9-1.8-1.4-3-1.4
		c-1.8,0-3,0.9-3.7,2.6c-0.4,0.9-0.5,2.1-0.5,3.6c0,1.7,0.4,3.1,1,4c0.7,0.9,1.6,1.4,2.8,1.4c1.8,0,3.1-0.8,3.9-2.5
		c0.4-0.9,0.6-2.1,0.6-3.3C126.3,425.5,125.9,424,125.1,423.1z"/>
</g>
<g id="XMLID_4_">
	<g id="XMLID_1231_">
		<path id="XMLID_1232_" style="fill:#FF6400;" d="M129.4,544.5l1.6,0.6l-3.6,9.6l-1.6-0.6L129.4,544.5z M130.7,540.9l1.6,0.6
			l-0.7,1.8l-1.6-0.6L130.7,540.9z"/>
		<path id="XMLID_1235_" style="fill:#FF6400;" d="M133.4,546l1.6,0.5l-0.5,1.4c0.6-0.4,1.3-0.7,1.9-0.8c0.6-0.1,1.2,0,1.9,0.2
			c1.4,0.5,2.2,1.2,2.3,2.4c0.1,0.6,0,1.4-0.3,2.4l-2,6.3l-1.7-0.5l2-6.2c0.2-0.6,0.3-1.1,0.2-1.5c-0.1-0.7-0.5-1.2-1.3-1.4
			c-0.4-0.1-0.7-0.2-1-0.2c-0.5,0-1,0.1-1.5,0.4c-0.4,0.2-0.7,0.5-0.9,0.8c-0.2,0.3-0.4,0.8-0.6,1.4l-1.7,5.1l-1.6-0.5L133.4,546z"
			/>
		<path id="XMLID_1237_" style="fill:#FF6400;" d="M144.9,546.5l1.7,0.5l-0.7,2.8l1.6,0.4l-0.4,1.4l-1.6-0.4l-1.8,6.5
			c-0.1,0.3,0,0.6,0.2,0.8c0.1,0.1,0.3,0.2,0.6,0.3c0.1,0,0.2,0,0.3,0.1s0.2,0,0.3,0.1l-0.4,1.3c-0.2,0-0.4,0-0.6,0
			c-0.2,0-0.4-0.1-0.7-0.1c-0.8-0.2-1.3-0.6-1.4-1s-0.2-1,0-1.7l1.8-6.6l-1.3-0.4l0.4-1.4l1.3,0.4L144.9,546.5z"/>
		<path id="XMLID_1239_" style="fill:#FF6400;" d="M155.2,552.3c0.6,0.5,1,1,1.2,1.6c0.2,0.6,0.3,1.2,0.3,1.9c0,0.5-0.1,1.2-0.3,2.3
			l-7.3-1.6c-0.2,1-0.1,1.9,0.2,2.6c0.3,0.7,0.9,1.2,1.9,1.4c0.9,0.2,1.6,0,2.3-0.4c0.4-0.3,0.7-0.6,0.9-1l1.7,0.4
			c-0.1,0.4-0.4,0.7-0.7,1.1c-0.3,0.4-0.7,0.7-1.1,0.9c-0.6,0.4-1.3,0.6-2.1,0.6c-0.4,0-0.9,0-1.4-0.1c-1.2-0.3-2.2-1-2.9-2.1
			c-0.7-1.1-0.8-2.5-0.5-4.1c0.4-1.6,1.1-2.8,2.2-3.7c1.1-0.8,2.3-1.1,3.8-0.8C153.9,551.5,154.6,551.8,155.2,552.3z M154.9,556.4
			c0.1-0.7,0.1-1.4-0.1-1.9c-0.3-0.9-1-1.5-2-1.7c-0.8-0.2-1.5,0-2.1,0.4c-0.6,0.4-1.1,1.1-1.3,2L154.9,556.4z"/>
		<path id="XMLID_1242_" style="fill:#FF6400;" d="M159.7,552.8l1.6,0.3l-0.3,1.8c0.2-0.3,0.6-0.7,1.2-1.1c0.6-0.4,1.2-0.6,1.9-0.4
			c0,0,0.1,0,0.2,0c0.1,0,0.2,0.1,0.4,0.1l-0.3,1.8c-0.1,0-0.2-0.1-0.3-0.1c-0.1,0-0.2,0-0.3-0.1c-0.9-0.1-1.6,0-2.1,0.5
			c-0.6,0.5-0.9,1.1-1,1.8l-0.9,5.9L158,563L159.7,552.8z"/>
		<path id="XMLID_1244_" style="fill:#FF6400;" d="M166.1,553.8l1.6,0.2l-0.2,1.5c0.5-0.5,1.1-0.9,1.7-1.1c0.6-0.2,1.2-0.3,1.9-0.2
			c1.5,0.2,2.4,0.8,2.8,1.8c0.2,0.6,0.3,1.4,0.2,2.4l-0.7,6.6l-1.8-0.2l0.7-6.5c0.1-0.6,0-1.1-0.1-1.5c-0.2-0.7-0.8-1.1-1.6-1.1
			c-0.4,0-0.7,0-1,0c-0.5,0.1-0.9,0.3-1.3,0.7c-0.3,0.3-0.5,0.6-0.7,1c-0.1,0.4-0.2,0.9-0.3,1.5l-0.6,5.4l-1.7-0.2L166.1,553.8z"/>
		<path id="XMLID_1246_" style="fill:#FF6400;" d="M182.2,559.2c0.4,0,0.7-0.2,0.8-0.5c0.1-0.2,0.1-0.4,0.1-0.7c0-0.6-0.2-1-0.6-1.3
			c-0.4-0.3-1-0.4-1.8-0.5c-0.9,0-1.6,0.2-2,0.7c-0.2,0.3-0.4,0.7-0.5,1.2l-1.6-0.1c0.1-1.3,0.5-2.1,1.3-2.6
			c0.8-0.5,1.7-0.7,2.8-0.6c1.2,0.1,2.2,0.3,2.9,0.8c0.7,0.5,1.1,1.2,1,2.2l-0.2,5.9c0,0.2,0,0.3,0.1,0.4c0.1,0.1,0.2,0.2,0.5,0.2
			c0.1,0,0.2,0,0.3,0c0.1,0,0.2,0,0.3,0l-0.1,1.3c-0.3,0.1-0.5,0.1-0.6,0.1c-0.1,0-0.3,0-0.6,0c-0.6,0-1-0.3-1.3-0.7
			c-0.1-0.2-0.2-0.6-0.3-1c-0.4,0.4-0.9,0.8-1.6,1.1s-1.4,0.5-2.2,0.4c-1,0-1.7-0.4-2.3-1c-0.6-0.6-0.9-1.3-0.8-2.2
			c0-1,0.4-1.7,1-2.2c0.6-0.5,1.4-0.8,2.4-0.9L182.2,559.2z M178.4,563.7c0.4,0.3,0.8,0.5,1.3,0.5c0.6,0,1.2-0.1,1.8-0.3
			c1-0.4,1.5-1.2,1.5-2.2l0.1-1.4c-0.2,0.1-0.5,0.2-0.8,0.3c-0.3,0.1-0.7,0.1-1,0.2l-1.1,0.1c-0.6,0.1-1.1,0.2-1.4,0.3
			c-0.5,0.3-0.8,0.7-0.9,1.4C177.8,563,178,563.4,178.4,563.7z"/>
		<path id="XMLID_1249_" style="fill:#FF6400;" d="M187.7,551.4l1.7,0l0.2,14.1l-1.7,0L187.7,551.4z"/>
		<path id="XMLID_1251_" style="fill:#FF6400;" d="M192,551.4l1.8-0.1l0.1,2l-1.8,0.1L192,551.4z M192.1,555.2l1.8-0.1l0.3,10.3
			l-1.8,0.1L192.1,555.2z"/>
		<path id="XMLID_1254_" style="fill:#FF6400;" d="M196.3,564l5.6-7.8l-5.7,0.4l-0.1-1.5l8-0.6l0.1,1.4l-5.5,7.8l6.3-0.5l0.1,1.5
			l-8.6,0.6L196.3,564z"/>
		<path id="XMLID_1256_" style="fill:#FF6400;" d="M212.1,557.6c0.4-0.1,0.6-0.3,0.7-0.6c0.1-0.2,0.1-0.4,0-0.7
			c-0.1-0.6-0.3-1-0.8-1.2c-0.5-0.2-1.1-0.3-1.8-0.2c-0.9,0.1-1.5,0.5-1.8,1c-0.2,0.3-0.3,0.7-0.2,1.3l-1.6,0.2
			c-0.1-1.3,0.1-2.2,0.9-2.8c0.7-0.6,1.6-1,2.6-1.1c1.2-0.2,2.2-0.1,3,0.3c0.8,0.4,1.3,1,1.4,2l0.8,5.9c0,0.2,0.1,0.3,0.2,0.4
			c0.1,0.1,0.2,0.1,0.5,0.1c0.1,0,0.2,0,0.3,0c0.1,0,0.2-0.1,0.3-0.1l0.2,1.3c-0.3,0.1-0.5,0.2-0.6,0.2c-0.1,0-0.3,0.1-0.6,0.1
			c-0.6,0.1-1-0.1-1.4-0.5c-0.2-0.2-0.3-0.5-0.4-0.9c-0.3,0.5-0.7,1-1.3,1.4c-0.6,0.4-1.3,0.7-2.1,0.8c-0.9,0.1-1.8-0.1-2.4-0.5
			c-0.7-0.5-1.1-1.2-1.2-2c-0.1-0.9,0.1-1.7,0.6-2.3c0.5-0.6,1.3-1,2.2-1.3L212.1,557.6z M209.1,562.7c0.4,0.2,0.9,0.3,1.3,0.3
			c0.6-0.1,1.2-0.3,1.7-0.7c0.9-0.6,1.3-1.4,1.1-2.5l-0.2-1.4c-0.2,0.2-0.4,0.3-0.8,0.4c-0.3,0.1-0.6,0.2-0.9,0.3l-1,0.3
			c-0.6,0.2-1.1,0.4-1.3,0.6c-0.5,0.4-0.7,0.9-0.6,1.5C208.5,562.1,208.7,562.5,209.1,562.7z"/>
		<path id="XMLID_1259_" style="fill:#FF6400;" d="M216.7,549.8l1.7-0.3l0.5,2.8l1.6-0.3l0.3,1.4l-1.6,0.3l1.2,6.6
			c0.1,0.4,0.2,0.6,0.5,0.6c0.1,0,0.4,0,0.7,0c0.1,0,0.2,0,0.3-0.1c0.1,0,0.2-0.1,0.3-0.1l0.3,1.4c-0.2,0.1-0.4,0.2-0.6,0.2
			c-0.2,0.1-0.4,0.1-0.7,0.2c-0.8,0.1-1.4,0-1.7-0.3c-0.4-0.4-0.6-0.9-0.7-1.5l-1.3-6.7l-1.4,0.3l-0.3-1.4l1.4-0.3L216.7,549.8z"/>
		<path id="XMLID_1261_" style="fill:#FF6400;" d="M221.4,547.9l1.7-0.4l0.4,1.9l-1.7,0.4L221.4,547.9z M222.2,551.7l1.7-0.4l2.2,10
			l-1.7,0.4L222.2,551.7z"/>
		<path id="XMLID_1264_" style="fill:#FF6400;" d="M233.9,549.8c1.1,0.6,1.9,1.8,2.3,3.4c0.4,1.6,0.4,3-0.1,4.3
			c-0.5,1.3-1.6,2.1-3.2,2.5c-1.4,0.4-2.6,0.2-3.6-0.5c-1-0.7-1.8-1.8-2.2-3.4c-0.4-1.7-0.4-3.1,0.2-4.3c0.6-1.2,1.6-2,3-2.4
			C231.6,549.1,232.8,549.2,233.9,549.8z M234.6,556.7c0.2-0.9,0.1-1.9-0.1-3c-0.2-0.9-0.6-1.6-1-2.1c-0.7-0.8-1.6-1-2.8-0.7
			c-1,0.3-1.6,0.9-1.9,1.8c-0.3,0.9-0.2,1.9,0.1,3c0.3,1.1,0.8,1.9,1.4,2.5c0.6,0.6,1.5,0.7,2.5,0.5
			C233.8,558.3,234.4,557.7,234.6,556.7z"/>
		<path id="XMLID_1267_" style="fill:#FF6400;" d="M236.9,547.9l1.6-0.5l0.5,1.4c0.3-0.7,0.6-1.3,1-1.7c0.4-0.4,1-0.7,1.6-1
			c1.4-0.5,2.5-0.3,3.3,0.5c0.4,0.4,0.8,1.1,1.2,2.1l2.1,6.3l-1.7,0.6l-2.1-6.2c-0.2-0.6-0.5-1-0.8-1.3c-0.5-0.5-1.1-0.6-1.9-0.4
			c-0.4,0.1-0.7,0.3-0.9,0.4c-0.4,0.3-0.7,0.7-0.9,1.2c-0.2,0.4-0.2,0.8-0.2,1.2c0,0.4,0.2,0.9,0.4,1.5l1.7,5.1l-1.6,0.6
			L236.9,547.9z"/>
	</g>
	<g id="XMLID_531_">
		<path id="XMLID_732_" style="fill:#FF6400;" d="M115.4,562.9l1.6,0.8l-4.5,9.2l-1.6-0.8L115.4,562.9z M117.1,559.4l1.6,0.8
			l-0.9,1.8l-1.6-0.8L117.1,559.4z"/>
		<path id="XMLID_739_" style="fill:#FF6400;" d="M119.3,564.8l1.5,0.6l-0.6,1.3c0.7-0.4,1.3-0.6,1.9-0.6s1.2,0.1,1.8,0.4
			c1.3,0.6,2.1,1.4,2.1,2.6c0,0.6-0.1,1.4-0.6,2.4l-2.6,6.1l-1.6-0.7l2.6-6c0.2-0.6,0.4-1.1,0.3-1.5c0-0.7-0.4-1.2-1.2-1.5
			c-0.4-0.2-0.7-0.3-1-0.3c-0.5-0.1-1,0-1.5,0.3c-0.4,0.2-0.7,0.4-0.9,0.7c-0.2,0.3-0.5,0.8-0.7,1.4l-2.1,5l-1.6-0.7L119.3,564.8z"
			/>
		<path id="XMLID_743_" style="fill:#FF6400;" d="M135.6,567.1l1.7,0.5l-1.6,5c0.5-0.4,1-0.6,1.4-0.7c0.6-0.2,1.4-0.1,2.2,0.1
			c1.4,0.5,2.2,1.3,2.4,2.4c0.1,0.6,0,1.4-0.3,2.4l-2,6.3l-1.7-0.5l2-6.2c0.2-0.7,0.3-1.3,0.2-1.7c-0.1-0.6-0.6-1.1-1.4-1.3
			c-0.7-0.2-1.4-0.2-2.1,0.1c-0.7,0.3-1.3,1.1-1.7,2.4l-1.7,5.2l-1.7-0.5L135.6,567.1z"/>
		<path id="XMLID_808_" style="fill:#FF6400;" d="M146.5,574.4l-1.6,6.6c-0.1,0.5-0.1,0.9-0.1,1.3c0.1,0.7,0.6,1.1,1.4,1.3
			c1.1,0.3,2-0.1,2.7-1c0.4-0.5,0.7-1.2,0.9-2.2l1.2-4.9l1.7,0.4l-2.5,10l-1.6-0.4l0.4-1.5c-0.3,0.3-0.7,0.6-1,0.8
			c-0.8,0.4-1.6,0.4-2.5,0.2c-1.4-0.3-2.2-1.1-2.5-2.1c-0.2-0.6-0.1-1.3,0.1-2.1l1.7-6.8L146.5,574.4z"/>
		<path id="XMLID_810_" style="fill:#FF6400;" d="M155.3,576.6l1.7,0.3l-0.2,1.4c0.5-0.4,0.9-0.7,1.3-0.9c0.6-0.3,1.3-0.4,2-0.3
			c0.8,0.1,1.4,0.4,1.9,0.9c0.2,0.3,0.4,0.6,0.6,1.1c0.5-0.5,1-0.8,1.5-1c0.6-0.2,1.2-0.2,1.8-0.1c1.4,0.2,2.2,0.9,2.6,1.9
			c0.2,0.6,0.2,1.3,0.1,2.2l-1.1,6.8l-1.8-0.3l1.1-7.1c0.1-0.7,0-1.2-0.3-1.5c-0.3-0.3-0.7-0.5-1.2-0.6c-0.7-0.1-1.3,0-1.8,0.4
			s-0.9,1.1-1.1,2.1l-0.9,5.9l-1.7-0.3l1.1-6.6c0.1-0.7,0.1-1.2,0-1.6c-0.2-0.5-0.6-0.8-1.3-0.9c-0.6-0.1-1.3,0.1-1.9,0.5
			c-0.6,0.4-1,1.3-1.2,2.6l-0.9,5.4l-1.7-0.3L155.3,576.6z"/>
		<path id="XMLID_825_" style="fill:#FF6400;" d="M176.7,583.4c0.4,0,0.7-0.2,0.8-0.4c0.1-0.1,0.1-0.4,0.2-0.7c0-0.6-0.1-1-0.5-1.3
			c-0.4-0.3-1-0.5-1.8-0.5c-0.9-0.1-1.6,0.1-2,0.6c-0.2,0.3-0.4,0.6-0.5,1.2l-1.6-0.1c0.1-1.3,0.6-2.1,1.4-2.6
			c0.8-0.4,1.8-0.6,2.8-0.5c1.2,0.1,2.2,0.4,2.9,0.9c0.7,0.5,1,1.3,1,2.2l-0.4,5.9c0,0.2,0,0.3,0.1,0.4c0.1,0.1,0.2,0.2,0.5,0.2
			c0.1,0,0.2,0,0.3,0c0.1,0,0.2,0,0.3,0l-0.1,1.3c-0.3,0.1-0.5,0.1-0.6,0.1c-0.1,0-0.3,0-0.6,0c-0.6,0-1-0.3-1.2-0.7
			c-0.1-0.2-0.2-0.6-0.2-1c-0.4,0.4-0.9,0.8-1.6,1.1c-0.7,0.3-1.4,0.4-2.2,0.3c-1-0.1-1.7-0.4-2.3-1c-0.6-0.6-0.8-1.4-0.7-2.2
			c0.1-1,0.4-1.7,1.1-2.1c0.6-0.5,1.4-0.7,2.4-0.8L176.7,583.4z M172.7,587.8c0.3,0.3,0.8,0.5,1.3,0.5c0.6,0,1.2-0.1,1.8-0.3
			c1-0.4,1.5-1.1,1.6-2.2l0.1-1.4c-0.2,0.1-0.5,0.2-0.8,0.3c-0.3,0.1-0.7,0.1-1,0.1l-1.1,0.1c-0.6,0-1.1,0.1-1.4,0.3
			c-0.6,0.3-0.9,0.7-0.9,1.4C172.2,587.1,172.3,587.5,172.7,587.8z"/>
		<path id="XMLID_845_" style="fill:#FF6400;" d="M182.3,579.7l1.6,0l0,1.5c0.5-0.6,1-1,1.6-1.3c0.5-0.3,1.2-0.4,1.8-0.4
			c1.5,0,2.4,0.5,2.9,1.6c0.3,0.6,0.4,1.4,0.4,2.4l-0.1,6.6l-1.8,0l0.1-6.5c0-0.6-0.1-1.1-0.3-1.5c-0.3-0.6-0.9-1-1.7-1
			c-0.4,0-0.7,0-1,0.1c-0.5,0.1-0.9,0.4-1.3,0.8c-0.3,0.3-0.5,0.7-0.6,1c-0.1,0.4-0.1,0.9-0.1,1.6l-0.1,5.4l-1.7,0L182.3,579.7z"/>
		<path id="XMLID_850_" style="fill:#FF6400;" d="M198.7,576.5l1.7-0.1l0.2,2.9l1.6-0.1l0.1,1.4l-1.6,0.1l0.5,6.7
			c0,0.4,0.2,0.6,0.4,0.7c0.1,0.1,0.4,0.1,0.7,0.1c0.1,0,0.2,0,0.3,0s0.2,0,0.3-0.1l0.1,1.4c-0.2,0.1-0.4,0.1-0.6,0.2
			c-0.2,0-0.4,0.1-0.7,0.1c-0.8,0.1-1.4-0.1-1.7-0.5c-0.3-0.4-0.5-0.9-0.6-1.6l-0.5-6.8l-1.4,0.1l-0.1-1.4l1.4-0.1L198.7,576.5z"/>
		<path id="XMLID_1001_" style="fill:#FF6400;" d="M203.5,575.2l1.7-0.2l0.6,5.2c0.3-0.6,0.7-1,1-1.2c0.5-0.4,1.2-0.7,2-0.8
			c1.5-0.2,2.6,0.2,3.2,1.2c0.4,0.5,0.6,1.3,0.7,2.3l0.8,6.6l-1.8,0.2L211,582c-0.1-0.8-0.3-1.3-0.5-1.6c-0.4-0.5-1-0.7-1.9-0.6
			c-0.7,0.1-1.3,0.4-1.8,1c-0.5,0.6-0.7,1.5-0.5,2.9l0.7,5.4l-1.7,0.2L203.5,575.2z"/>
		<path id="XMLID_1006_" style="fill:#FF6400;" d="M222.3,577.2c1.1,0.7,1.8,1.9,2.1,3.6c0.3,1.6,0.2,3.1-0.4,4.3s-1.7,2-3.4,2.3
			c-1.4,0.3-2.6,0-3.6-0.8c-1-0.8-1.6-2-1.9-3.6c-0.3-1.7-0.2-3.1,0.5-4.3c0.7-1.2,1.7-1.9,3.2-2.2
			C220,576.3,221.2,576.5,222.3,577.2z M222.5,584.1c0.3-0.9,0.3-1.9,0.1-3c-0.2-0.9-0.5-1.7-0.9-2.2c-0.7-0.8-1.6-1.2-2.7-0.9
			c-1,0.2-1.7,0.7-2,1.6c-0.3,0.9-0.4,1.9-0.2,3c0.2,1.1,0.6,1.9,1.2,2.6c0.6,0.6,1.4,0.8,2.4,0.7
			C221.6,585.6,222.2,585.1,222.5,584.1z"/>
		<path id="XMLID_1036_" style="fill:#FF6400;" d="M227,575.1l1.7,6.6c0.1,0.5,0.3,0.9,0.6,1.2c0.4,0.5,1.1,0.7,1.9,0.5
			c1.1-0.3,1.8-1,1.9-2.2c0.1-0.6,0-1.4-0.3-2.4l-1.3-4.9l1.7-0.4l2.6,10l-1.6,0.4l-0.4-1.5c-0.1,0.4-0.3,0.8-0.5,1.2
			c-0.5,0.7-1.2,1.1-2.1,1.4c-1.4,0.4-2.5,0.1-3.2-0.7c-0.4-0.4-0.7-1.1-0.9-1.9l-1.8-6.8L227,575.1z"/>
		<path id="XMLID_1062_" style="fill:#FF6400;" d="M241.4,571.2c0.4,0.1,0.8,0.3,1.3,0.6l-0.4-1.2l1.5-0.5l3,8.9
			c0.4,1.2,0.6,2.3,0.4,3.1c-0.2,1.6-1.3,2.6-3.2,3.3c-1.1,0.4-2,0.4-2.9,0.2c-0.9-0.2-1.5-0.8-1.9-1.8l1.7-0.6
			c0.2,0.4,0.5,0.7,0.8,0.9c0.5,0.2,1.1,0.2,1.9,0c1.3-0.4,1.9-1.1,2-2.2c0.1-0.6-0.2-1.6-0.6-2.9c-0.2,0.6-0.4,1.1-0.8,1.5
			c-0.4,0.4-0.9,0.7-1.7,1c-1.1,0.4-2.1,0.3-3.1-0.2c-1-0.5-1.9-1.6-2.4-3.3c-0.5-1.6-0.6-3-0.1-4.2c0.5-1.2,1.3-2,2.4-2.3
			C240,571.1,240.7,571.1,241.4,571.2z M242.2,572.9c-0.7-0.4-1.4-0.5-2.2-0.2c-1.2,0.4-1.8,1.2-1.8,2.4c0,0.7,0.1,1.4,0.4,2.4
			c0.4,1.1,0.9,1.9,1.5,2.3c0.6,0.4,1.3,0.5,2.1,0.3c1.2-0.4,1.8-1.2,1.9-2.4c0.1-0.7,0-1.4-0.3-2.2
			C243.4,574.2,242.9,573.4,242.2,572.9z"/>
		<path id="XMLID_1092_" style="fill:#FF6400;" d="M244.6,565.6l1.6-0.7l2,4.9c0.2-0.6,0.4-1.1,0.6-1.4c0.4-0.6,1-1,1.7-1.3
			c1.4-0.6,2.5-0.5,3.4,0.3c0.5,0.4,0.9,1.1,1.3,2l2.5,6.1l-1.6,0.7l-2.5-6c-0.3-0.7-0.6-1.2-0.9-1.4c-0.5-0.4-1.2-0.4-2-0.1
			c-0.7,0.3-1.2,0.7-1.5,1.4c-0.4,0.7-0.3,1.7,0.2,2.9l2.1,5.1l-1.6,0.7L244.6,565.6z"/>
		<path id="XMLID_1114_" style="fill:#FF6400;" d="M255.2,562.2l1.6-0.7l1.2,2.6l1.5-0.7l0.6,1.3l-1.5,0.7l2.9,6.1
			c0.2,0.3,0.4,0.5,0.6,0.5c0.2,0,0.4-0.1,0.7-0.2c0.1,0,0.2-0.1,0.2-0.1c0.1,0,0.2-0.1,0.3-0.2l0.6,1.2c-0.2,0.1-0.3,0.3-0.5,0.4
			c-0.2,0.1-0.4,0.2-0.6,0.3c-0.7,0.3-1.3,0.4-1.8,0.1c-0.4-0.3-0.8-0.7-1.1-1.3l-2.9-6.2l-1.3,0.6l-0.6-1.3l1.3-0.6L255.2,562.2z"
			/>
	</g>
</g>
</svg>
