<?xml version="1.0" encoding="UTF-8" standalone="no"?>
<!-- Created with Serif DrawPlus 11, 0, 3, 23 (Feb 25, 14:12:55) (http://www.serif.com) -->
<svg version="1.1" xmlns="http://www.w3.org/2000/svg" xmlns:xlink="http://www.w3.org/1999/xlink" xmlns:inkscape="http://www.inkscape.org/namespaces/inkscape" width="279.336" height="178.316">
	<g id="dp_group001">
		<path id="path4708" fill="none" fill-rule="evenodd" stroke="blue" stroke-width="2.01067" d="M 74.848,75.8107 C 78.4693,69.9667 81.028,56.568 85.7107,58.28 C 90.392,59.9933 97.132,86.1933 102.94,86.088 C 108.749,85.9827 114.699,57.664 120.563,57.6467 C 126.427,57.6307 132.281,85.9707 138.123,85.9893 C 143.965,86.0067 149.836,57.8347 155.617,57.7547 C 161.4,57.6733 167.144,85.4013 172.812,85.504 C 178.48,85.6067 184.981,59.9187 189.625,58.3693 C 194.269,56.82 196.995,70.2627 200.679,76.208"/>
		<path id="path4681" fill="none" fill-rule="evenodd" stroke="black" stroke-width="2" d="M 0.706667,0.706667 L 75.32,75.3187 L 0.804,148.485"/>
		<path id="path4683" fill="none" fill-rule="evenodd" stroke="black" stroke-width="2" d="M 274.951,1.53067 L 200.339,75.6933 L 274.404,147.959"/>
		<g id="g4117">
			<text id="dp_text001" transform="matrix(1,0,0,1,35.8203,134.373)" xml:space="preserve" fill="black" stroke="none" stroke-width="1" font-family="Arial" font-size="14" font-weight="400" x="0" y="0">e  </text>
			<text id="dp_text002" transform="matrix(1,0,0,1,44.1843,129.103)" xml:space="preserve" fill="black" stroke="none" stroke-width="1" font-family="Arial" font-size="8" font-weight="400" x="0" y="0">+  </text>
		</g>
		<text id="dp_text003" transform="matrix(1,0,0,1,236.533,19.324)" xml:space="preserve" fill="black" stroke="none" stroke-width="1" font-family="Arial" font-size="14" font-weight="400" x="0" y="0">q  </text>
		<text id="dp_text004" transform="matrix(1,0,0,1,235.034,137.968)" xml:space="preserve" fill="black" stroke="none" stroke-width="1" font-family="Arial" font-size="14" font-weight="400" x="0" y="0">q  </text>
		<text id="dp_text005" transform="matrix(1,0,0,1,260.662,61.192)" xml:space="preserve" fill="black" stroke="none" stroke-width="1" font-family="Arial" font-size="14" font-weight="400" x="0" y="0">g  </text>
		<path id="dp_path007" fill="black" fill-rule="evenodd" stroke="none" stroke-width="1" d="M 139.619,44.6987 L 141.232,44.6987 L 138.096,51.272 C 138.177,51.976 138.219,52.5907 138.219,53.116 C 138.219,54.58 137.945,55.312 137.399,55.312 C 137.003,55.312 136.805,55.0053 136.805,54.3907 C 136.805,53.588 137.095,52.5827 137.673,51.3747 C 137.559,50.624 137.399,49.72 137.193,48.6613 C 136.987,47.604 136.776,46.8453 136.56,46.3867 C 136.344,45.928 136.035,45.6987 135.633,45.6987 C 134.977,45.6987 134.625,46.188 134.579,47.1653 L 134.299,47.1653 C 134.299,45.4493 134.809,44.592 135.829,44.592 C 136.419,44.592 136.856,44.94 137.143,45.6347 C 137.429,46.3293 137.723,47.84 138.025,50.168 Z "/>
		<g id="g4745">
			<path id="path4747" fill="black" fill-rule="evenodd" d="M 43.5693,113.939 L 30.8547,119.725 L 36.7907,107.079 C 37.3013,110.576 40.0467,113.339 43.5693,113.939 Z "/>
		</g>
		<path id="path4653" fill="none" fill-rule="evenodd" stroke="black" stroke-width="1.10133" d="M 237.328,8.904 L 243.393,8.904"/>
		<text id="dp_text006" transform="matrix(1,-5.55112e-017,5.55112e-017,1,36.9973,24.0013)" xml:space="preserve" fill="black" stroke="none" stroke-width="1" font-family="Arial" font-size="14" font-weight="400" x="0" y="0">e  </text>
		<path id="path2778" fill="none" fill-rule="evenodd" stroke="black" stroke-width="1" d="M 45.4227,16.088 L 49.2627,16.088"/>
		<g id="g4113">
			<path id="path4115" fill="black" fill-rule="evenodd" d="M 35.9733,29 L 41.76,41.7147 L 29.1147,35.7787 C 32.6107,35.2667 35.3733,32.52 35.9733,29 Z "/>
		</g>
		<g id="g4139">
			<path id="path4141" fill="black" fill-rule="evenodd" d="M 248.931,34.1427 L 236.215,39.9293 L 242.152,27.2827 C 242.663,30.7813 245.408,33.5427 248.931,34.1427 Z "/>
		</g>
		<g id="g4143">
			<path id="path4145" fill="black" fill-rule="evenodd" d="M 242.717,110.135 L 248.503,122.849 L 235.857,116.913 C 239.355,116.403 242.117,113.656 242.717,110.135 Z "/>
		</g>
		<g id="g4749">
			<path id="path4514" fill="black" fill-rule="evenodd" stroke="none" stroke-width="0.916" d="M 257.032,169.169 L 9.81333,169.169 L 9.81333,170.108 L 257.032,170.108 Z "/>
			<path id="path4755" fill="black" fill-rule="evenodd" d="M 247.233,165.575 L 258.241,169.623 L 247.233,173.671 C 248.992,171.28 248.981,168.011 247.233,165.575 Z "/>
		</g>
		<text id="dp_text007" transform="matrix(1,-5.55112e-017,5.55112e-017,1,263.985,174.433)" xml:space="preserve" fill="black" font-family="Arial" font-size="16" font-weight="400" font-style="italic" x="0" y="0">t  </text>
		<g id="dp_group010">
			<path id="path6566" fill="none" fill-rule="evenodd" stroke="#00bc00" stroke-width="2" d="M 266.415,75.4987 C 272.915,79.9747 274.092,86.5293 271.469,91.0053 S 264.681,95.6067 262.565,94.1133 S 259.597,89.0147 262.828,84.928 S 272.909,80.404 278.883,84.648"/>
			<path id="path6566" fill="none" fill-rule="evenodd" stroke="#00bc00" stroke-width="2" d="M 253.976,66.376 C 260.476,70.8533 261.653,77.4067 259.029,81.884 S 252.243,86.4853 250.127,84.992 S 247.159,79.892 250.388,75.8067 S 260.471,71.2827 266.443,75.5253"/>
			<path id="path6566" fill="none" fill-rule="evenodd" stroke="#00bc00" stroke-width="2" d="M 241.536,57.256 C 248.036,61.732 249.215,68.2867 246.591,72.7627 S 239.803,77.364 237.687,75.8707 S 234.719,70.7707 237.949,66.6853 S 248.032,62.1613 254.004,66.4053"/>
			<path id="path6566" fill="none" fill-rule="evenodd" stroke="#00bc00" stroke-width="2" d="M 229.097,48.1333 C 235.597,52.6107 236.775,59.164 234.152,63.6413 S 227.364,68.2413 225.248,66.7493 S 222.28,61.6493 225.511,57.564 S 235.592,53.04 241.565,57.2827"/>
		</g>
	</g>
</svg>