<?xml version="1.0" encoding="utf-8"?>
<!-- Generator: Adobe Illustrator 19.0.0, SVG Export Plug-In . SVG Version: 6.00 Build 0)  -->
<svg version="1.1" xmlns="http://www.w3.org/2000/svg" xmlns:xlink="http://www.w3.org/1999/xlink" x="0px" y="0px" width="250px"
	 height="250px" viewBox="0 0 250 250" style="enable-background:new 0 0 250 250;" xml:space="preserve">

<g id="georgia">
	<path id="XMLID_1079_" style="fill-rule:evenodd;clip-rule:evenodd;" d="M141.6,148.8l-31-79l-30.4,79H141.6z M224.1,232.1h-85.2
		v-10.2c7.5-0.5,13.7-1.4,18.7-2.9c5-1.4,7.4-3.2,7.4-5.3c0-0.9-0.1-1.9-0.3-3.2c-0.2-1.2-0.5-2.3-0.9-3.3l-17-45.7H75.1
		c-2.7,6.7-4.9,12.5-6.6,17.5c-1.7,5-3.2,9.6-4.5,13.8c-1.2,4.1-2.1,7.5-2.6,10.1c-0.5,2.6-0.7,4.7-0.7,6.3c0,3.8,3,6.8,9.1,8.9
		c6.1,2.1,12.9,3.4,20.5,3.7v10.2h-77v-10.2c2.5-0.2,5.6-0.7,9.4-1.7c3.7-0.9,6.8-2.1,9.2-3.7c3.8-2.6,6.8-5.3,8.9-8.1
		c2.1-2.8,4.2-6.7,6.2-11.7c10.3-25.6,21.6-54.3,34-86.2c12.4-31.9,23.5-60.3,33.2-85.2h11.5L194,201.2c1.4,3.7,3.1,6.8,4.9,9.1
		c1.8,2.3,4.4,4.5,7.6,6.8c2.2,1.3,5.1,2.5,8.7,3.4c3.6,0.9,6.5,1.4,8.9,1.5V232.1z"/>
</g>

</svg>
