<?xml version="1.0" encoding="utf-8"?>
<!-- Generator: Adobe Illustrator 19.0.0, SVG Export Plug-In . SVG Version: 6.00 Build 0)  -->
<svg version="1.1" xmlns="http://www.w3.org/2000/svg" xmlns:xlink="http://www.w3.org/1999/xlink" x="0px" y="0px" width="250px"
	 height="250px" viewBox="0 0 250 250" style="enable-background:new 0 0 250 250;" xml:space="preserve">
<g id="georgia-bold">
	<path id="XMLID_1066_" d="M140.5,149.6l-29.6-73.8l-29.2,73.8H140.5z M247.6,232.1H136.4v-11.2c5.2-0.4,11.3-1.3,18.3-2.8
		c7-1.5,10.5-3.3,10.5-5.5c0-0.8-0.1-1.6-0.2-2.6c-0.1-1-0.6-2.3-1.2-3.9l-17.4-42.2H75.9c-1.6,3.9-3.4,8.5-5.4,13.8
		c-2,5.3-3.7,10-5.1,14.1c-1.8,5.4-2.9,9.2-3.2,11.6c-0.3,2.4-0.5,4.1-0.5,5c0,3.1,2.3,5.7,7,7.8c4.7,2.2,12.4,3.7,23.2,4.7v11.2
		H8.2v-11.2c3.2-0.2,6.7-0.7,10.7-1.5c4-0.8,7.1-1.9,9.4-3.4c3.9-2.3,7.3-5.1,10-8.5c2.7-3.4,5-7.3,6.8-11.9
		c11.1-26.9,22.3-53.9,33.4-80.9s23.5-56.8,37-89.4h28.8c18.8,46.2,33.5,82.7,44.2,109.5c10.6,26.8,19.7,49,27.2,66.7
		c1.2,2.9,2.8,5.5,4.7,7.8c1.9,2.3,4.7,4.6,8.2,6.7c2.7,1.5,5.8,2.7,9.3,3.4c3.5,0.8,6.8,1.2,9.6,1.4V232.1z"/>
</g>
<g id="georgia">
	<path id="XMLID_1079_" style="fill-rule:evenodd;clip-rule:evenodd;" d="M141.6,148.8l-31-79l-30.4,79H141.6z M224.1,232.1h-85.2
		v-10.2c7.5-0.5,13.7-1.4,18.7-2.9c5-1.4,7.4-3.2,7.4-5.3c0-0.9-0.1-1.9-0.3-3.2c-0.2-1.2-0.5-2.3-0.9-3.3l-17-45.7H75.1
		c-2.7,6.7-4.9,12.5-6.6,17.5c-1.7,5-3.2,9.6-4.5,13.8c-1.2,4.1-2.1,7.5-2.6,10.1c-0.5,2.6-0.7,4.7-0.7,6.3c0,3.8,3,6.8,9.1,8.9
		c6.1,2.1,12.9,3.4,20.5,3.7v10.2h-77v-10.2c2.5-0.2,5.6-0.7,9.4-1.7c3.7-0.9,6.8-2.1,9.2-3.7c3.8-2.6,6.8-5.3,8.9-8.1
		c2.1-2.8,4.2-6.7,6.2-11.7c10.3-25.6,21.6-54.3,34-86.2c12.4-31.9,23.5-60.3,33.2-85.2h11.5L194,201.2c1.4,3.7,3.1,6.8,4.9,9.1
		c1.8,2.3,4.4,4.5,7.6,6.8c2.2,1.3,5.1,2.5,8.7,3.4c3.6,0.9,6.5,1.4,8.9,1.5V232.1z"/>
</g>
<g id="georgia-bold-naive">
	<path id="XMLID_1105_" d="M128.6,241.5v-30l9.6-0.6c6.2-0.4,11.4-1.1,15.5-2.2l-14-37.7H82.1c-1.5,3.9-2.8,7.4-3.8,10.6
		c-1.7,4.9-3.2,9.5-4.5,13.6c-1.1,3.7-1.9,6.7-2.3,8.9c-0.2,1.2-0.4,2.1-0.4,2.8c0.5,0.2,1.1,0.5,2.1,0.9c5.1,1.8,11,2.8,17.6,3.2
		l9.7,0.5v30.2H3v-29.9l9.5-0.7c1.3-0.1,3.8-0.4,7.7-1.4c3.2-0.8,5-1.7,6.1-2.3c2.8-1.9,4.9-3.8,6.3-5.7c1.1-1.5,2.8-4.3,4.9-9.4
		c10.2-25.4,21.6-54.4,34-86.1C83.9,74.1,95,45.7,104.7,20.8l2.5-6.5h25.5l70.7,182.4c1.3,3.4,2.6,5.4,3.4,6.4
		c1.1,1.4,2.9,2.9,5.1,4.5c1,0.6,2.7,1.3,5.7,2.1c3.5,0.9,5.7,1.2,6.8,1.2l9.8,0.4v30.3H128.6z M126.6,137.7l-15.9-40.5l-15.6,40.5
		H126.6z"/>
</g>
<g id="helvetica-bold">
	<path id="XMLID_52_" d="M95.7,20.6h50l75,211.8h-48L159,188.9H81l-14.7,43.5H20.1L95.7,20.6z M92.9,152.4h53.7L120.2,69L92.9,152.4
		z"/>
</g>
<g id="helvetica-bold-naive">
	<path id="XMLID_55_" d="M175.3,240.5L153.9,177H85l-22.8,63.5H10.9L98,8.2h46.6l84,232.3H175.3z M137.7,133.2l-18-52.6l-19.1,52.6
		H137.7z"/>
</g>
<g id="helvetica">
	<path id="XMLID_59_" style="fill-rule:evenodd;clip-rule:evenodd;" d="M104.6,20.6H137l76.6,211.8h-31.3L160.8,169H77.3l-22.8,63.5
		H25.2L104.6,20.6z M151.6,145.6l-32-93.6l-34,93.6H151.6z"/>
</g>
</svg>
