<?xml version="1.0" encoding="utf-8"?>
<!-- Generator: Adobe Illustrator 19.0.0, SVG Export Plug-In . SVG Version: 6.00 Build 0)  -->
<svg version="1.1" xmlns="http://www.w3.org/2000/svg" xmlns:xlink="http://www.w3.org/1999/xlink" x="0px" y="0px" width="250px"
	 height="250px" viewBox="0 0 250 250" style="enable-background:new 0 0 250 250;" xml:space="preserve">
<g id="georgia-bold">
	<path id="XMLID_1066_" d="M140.5,149.6l-29.6-73.8l-29.2,73.8H140.5z M247.6,232.1H136.4v-11.2c5.2-0.4,11.3-1.3,18.3-2.8
		c7-1.5,10.5-3.3,10.5-5.5c0-0.8-0.1-1.6-0.2-2.6c-0.1-1-0.6-2.3-1.2-3.9l-17.4-42.2H75.9c-1.6,3.9-3.4,8.5-5.4,13.8
		c-2,5.3-3.7,10-5.1,14.1c-1.8,5.4-2.9,9.2-3.2,11.6c-0.3,2.4-0.5,4.1-0.5,5c0,3.1,2.3,5.7,7,7.8c4.7,2.2,12.4,3.7,23.2,4.7v11.2
		H8.2v-11.2c3.2-0.2,6.7-0.7,10.7-1.5c4-0.8,7.1-1.9,9.4-3.4c3.9-2.3,7.3-5.1,10-8.5c2.7-3.4,5-7.3,6.8-11.9
		c11.1-26.9,22.3-53.9,33.4-80.9s23.5-56.8,37-89.4h28.8c18.8,46.2,33.5,82.7,44.2,109.5c10.6,26.8,19.7,49,27.2,66.7
		c1.2,2.9,2.8,5.5,4.7,7.8c1.9,2.3,4.7,4.6,8.2,6.7c2.7,1.5,5.8,2.7,9.3,3.4c3.5,0.8,6.8,1.2,9.6,1.4V232.1z"/>
</g>

</svg>
