<?xml version="1.0" encoding="utf-8"?>
<!-- Generator: Adobe Illustrator 19.0.0, SVG Export Plug-In . SVG Version: 6.00 Build 0)  -->
<svg version="1.1" xmlns="http://www.w3.org/2000/svg" xmlns:xlink="http://www.w3.org/1999/xlink" x="0px" y="0px" width="250px"
	 height="250px" viewBox="0 0 250 250" style="enable-background:new 0 0 250 250;" xml:space="preserve">

<g id="georgia-bold-naive">
	<path id="XMLID_1105_" d="M128.6,241.5v-30l9.6-0.6c6.2-0.4,11.4-1.1,15.5-2.2l-14-37.7H82.1c-1.5,3.9-2.8,7.4-3.8,10.6
		c-1.7,4.9-3.2,9.5-4.5,13.6c-1.1,3.7-1.9,6.7-2.3,8.9c-0.2,1.2-0.4,2.1-0.4,2.8c0.5,0.2,1.1,0.5,2.1,0.9c5.1,1.8,11,2.8,17.6,3.2
		l9.7,0.5v30.2H3v-29.9l9.5-0.7c1.3-0.1,3.8-0.4,7.7-1.4c3.2-0.8,5-1.7,6.1-2.3c2.8-1.9,4.9-3.8,6.3-5.7c1.1-1.5,2.8-4.3,4.9-9.4
		c10.2-25.4,21.6-54.4,34-86.1C83.9,74.1,95,45.7,104.7,20.8l2.5-6.5h25.5l70.7,182.4c1.3,3.4,2.6,5.4,3.4,6.4
		c1.1,1.4,2.9,2.9,5.1,4.5c1,0.6,2.7,1.3,5.7,2.1c3.5,0.9,5.7,1.2,6.8,1.2l9.8,0.4v30.3H128.6z M126.6,137.7l-15.9-40.5l-15.6,40.5
		H126.6z"/>
</g>

</svg>
